<svg width="24" height="24" viewBox="0 0 24 24" fill="none" xmlns="http://www.w3.org/2000/svg">
<path d="M10.75 22H4.91699C3.76649 21.9989 2.83409 21.0665 2.83299 19.916V10.216C2.0162 9.63638 1.76189 8.53753 2.24099 7.658C3.14099 6.05 4.05899 4.465 4.96199 2.946C5.32416 2.353 5.97117 1.9938 6.66599 1.99992C7.08951 2.00422 7.50148 2.13864 7.84599 2.385L7.86999 2.4C8.28199 2.64 12.262 5.009 15.461 6.912L18.3 8.6L18.43 8.677C20.648 9.988 21.147 10.286 21.175 10.305C21.9915 10.8831 22.2426 11.9828 21.758 12.858C20.875 14.435 19.958 16.02 19.037 17.57C18.6795 18.1566 18.0439 18.5164 17.357 18.521C17.2224 18.5211 17.0882 18.506 16.957 18.476C16.841 18.545 16.201 18.956 15.39 19.476C13.947 20.401 11.975 21.666 11.747 21.783C11.4394 21.9413 11.0956 22.0161 10.75 22ZM4.49999 13.03V19.916C4.49999 20.1463 4.68669 20.333 4.91699 20.333H8.73999C7.28699 17.88 5.86099 15.422 4.49999 13.03ZM5.85799 12.03C6.25799 12.717 10.574 20.162 10.61 20.212C10.6668 20.2859 10.7548 20.3291 10.848 20.329C10.8971 20.329 10.9456 20.317 10.989 20.294C11.124 20.218 15.183 17.61 15.223 17.584C14.909 17.399 12.637 16.045 10.231 14.612L5.83799 12L5.84499 12.011L5.85499 12.028V12.034L5.85799 12.03ZM6.33199 3.9C5.52399 5.2 3.71599 8.428 3.69199 8.487C3.6327 8.62865 3.6853 8.79238 3.81599 8.873C3.94899 8.952 17.17 16.829 17.296 16.849C17.312 16.8502 17.328 16.8502 17.344 16.849C17.4526 16.8494 17.5536 16.7928 17.61 16.7C18.424 15.333 20.299 12.043 20.304 12.033C20.3619 11.8908 20.3092 11.7275 20.179 11.646C20.052 11.57 6.85599 3.728 6.77099 3.691C6.73236 3.67473 6.69091 3.66624 6.64899 3.666C6.54368 3.66657 6.44567 3.71989 6.38799 3.808L6.38099 3.82L6.37299 3.832L6.36099 3.852V3.857L6.34599 3.881L6.33099 3.9H6.33199ZM7.68499 9.39C6.76554 9.38944 6.02036 8.64412 6.02 7.72466C6.01963 6.80521 6.76421 6.05929 7.68366 6.058C8.60312 6.05671 9.34978 6.80055 9.35199 7.72C9.35089 8.6402 8.60519 9.3859 7.68499 9.387V9.39Z" fill="#262627"/>
</svg>
