<svg width="24" height="24" viewBox="0 0 24 24" fill="none" xmlns="http://www.w3.org/2000/svg">
<path d="M5.87735 9.07217C6.09516 8.96112 6.33616 8.90323 6.58064 8.90323V7.35484C6.09167 7.35484 5.60964 7.47059 5.17402 7.69269C5.12604 7.71716 5.07877 7.74283 5.03226 7.76969C4.65647 7.98665 4.32992 8.28049 4.07435 8.63265C3.78714 9.02839 3.59773 9.48652 3.52162 9.96953C3.4455 10.4526 3.48485 10.9467 3.63644 11.4116C3.78803 11.8765 4.04755 12.2989 4.39376 12.6442C4.73998 12.9895 5.16304 13.2479 5.62832 13.3983C6.04235 13.5321 6.47935 13.577 6.9108 13.5307C6.9642 13.525 7.01752 13.5178 7.07069 13.5093C7.55318 13.432 8.01052 13.2416 8.40532 12.9537L8.40613 12.9531L7.49339 11.7023C7.2959 11.8464 7.06706 11.9417 6.82566 11.9804C6.58426 12.0191 6.33713 12.0001 6.1045 11.9249C5.87186 11.8497 5.66034 11.7205 5.48724 11.5478C5.31414 11.3752 5.18438 11.164 5.10859 10.9316C5.03279 10.6991 5.01312 10.4521 5.05118 10.2106C5.08923 9.96906 5.18393 9.74 5.32753 9.54214C5.47113 9.34427 5.65955 9.18322 5.87735 9.07217Z" fill="#262627"/>
<path d="M3.48534 18.9677C3.48534 18.5612 3.5654 18.1587 3.72095 17.7832C3.87651 17.4076 4.10451 17.0664 4.39193 16.779C4.67936 16.4916 5.02058 16.2636 5.39612 16.108C5.77166 15.9525 6.17416 15.8724 6.58064 15.8724V14.3225C6.05258 14.3225 5.529 14.4126 5.03226 14.5882C4.95517 14.6155 4.87873 14.6448 4.80302 14.6761C4.23944 14.9096 3.72736 15.2517 3.29602 15.6831C2.86468 16.1144 2.52252 16.6265 2.28907 17.1901C2.25771 17.2658 2.2284 17.3422 2.20114 17.4193C2.02552 17.9161 1.93548 18.4396 1.93548 18.9677H3.48534Z" fill="#262627"/>
<path d="M12 5.03226C9.86214 5.03226 8.12905 6.76535 8.12905 8.90322C8.12905 11.0411 9.86214 12.7742 12 12.7742C14.1379 12.7742 15.871 11.0411 15.871 8.90322C15.871 6.76535 14.1379 5.03226 12 5.03226ZM9.67743 8.90322C9.67743 7.6205 10.7173 6.58064 12 6.58064C13.2827 6.58064 14.3226 7.6205 14.3226 8.90322C14.3226 10.186 13.2827 11.2258 12 11.2258C10.7173 11.2258 9.67743 10.186 9.67743 8.90322Z" fill="#262627"/>
<path d="M18.1227 9.07221C17.9049 8.96117 17.6638 8.90327 17.4194 8.90327V7.35488C17.9083 7.35488 18.3904 7.47063 18.826 7.69273C18.874 7.7172 18.9212 7.74287 18.9678 7.76973C19.3435 7.98669 19.6701 8.28053 19.9257 8.63269C20.2129 9.02843 20.4023 9.48656 20.4784 9.96957C20.5545 10.4526 20.5152 10.9468 20.3636 11.4117C20.212 11.8765 19.9525 12.2989 19.6062 12.6442C19.26 12.9895 18.837 13.2479 18.3717 13.3983C17.9577 13.5321 17.5207 13.577 17.0892 13.5307C17.0358 13.525 16.9825 13.5179 16.9293 13.5094C16.4468 13.432 15.9895 13.2416 15.5947 12.9537L15.5939 12.9531L16.5066 11.7024C16.7041 11.8465 16.9329 11.9418 17.1743 11.9804C17.4158 12.0191 17.6629 12.0001 17.8955 11.9249C18.1281 11.8497 18.3397 11.7205 18.5128 11.5479C18.6859 11.3752 18.8156 11.1641 18.8914 10.9316C18.9672 10.6992 18.9869 10.4521 18.9488 10.2106C18.9108 9.9691 18.8161 9.74004 18.6725 9.54218C18.5289 9.34431 18.3405 9.18326 18.1227 9.07221Z" fill="#262627"/>
<path d="M20.5147 18.9677C20.5147 18.5613 20.4346 18.1588 20.2791 17.7832C20.1235 17.4077 19.8955 17.0665 19.6081 16.779C19.3207 16.4916 18.9794 16.2636 18.6039 16.1081C18.2284 15.9525 17.8258 15.8724 17.4194 15.8724V14.3226C17.9474 14.3226 18.471 14.4126 18.9678 14.5882C19.0448 14.6155 19.1213 14.6448 19.197 14.6762C19.7606 14.9096 20.2727 15.2518 20.704 15.6831C21.1353 16.1145 21.4775 16.6265 21.7109 17.1901C21.7423 17.2658 21.7716 17.3423 21.7989 17.4194C21.9745 17.9161 22.0645 18.4397 22.0645 18.9677H20.5147Z" fill="#262627"/>
<path d="M17.4194 18.9677H15.871C15.871 16.8299 14.1379 15.0968 12 15.0968C9.86214 15.0968 8.12905 16.8299 8.12905 18.9677H6.58066C6.58066 15.9747 9.00699 13.5484 12 13.5484C14.993 13.5484 17.4194 15.9747 17.4194 18.9677Z" fill="#262627"/>
</svg>
