<svg width="20" height="16" viewBox="0 0 20 16" fill="none" xmlns="http://www.w3.org/2000/svg">
<path d="M6.27767 16C3.96696 16 1.81298 15.3455 0 14.2161C1.53928 14.3131 4.25576 14.0808 5.94541 12.5112C3.40363 12.3976 2.25733 10.499 2.10781 9.68763C2.32378 9.76876 3.35379 9.86613 3.93524 9.63895C1.01136 8.92495 0.562805 6.42596 0.662483 5.66329C1.21071 6.03651 2.14104 6.16633 2.50652 6.13387C-0.218005 4.23529 0.762161 1.37931 1.24394 0.762677C3.19916 3.40081 6.12943 4.88248 9.75456 4.9649C9.68621 4.67294 9.65011 4.36899 9.65011 4.0568C9.65011 1.81629 11.5096 0 13.8034 0C15.0018 0 16.0817 0.495829 16.8398 1.28893C17.6406 1.10616 18.8459 0.678308 19.4352 0.308316C19.1382 1.34686 18.2135 2.21321 17.6542 2.53431C17.6589 2.54524 17.6497 2.52334 17.6542 2.53431C18.1455 2.46194 19.4748 2.21313 20 1.86613C19.7403 2.44957 18.76 3.41964 17.9555 3.96273C18.1052 10.3917 13.0546 16 6.27767 16Z" fill="#47ACDF"/>
</svg>
