<svg width="24" height="24" viewBox="0 0 24 24" fill="none" xmlns="http://www.w3.org/2000/svg">
<path d="M4.41999 20.5789C4.13948 20.5784 3.87206 20.4601 3.68299 20.2529C3.49044 20.0474 3.39476 19.7694 3.41999 19.4889L3.66499 16.7949L14.983 5.48091L18.52 9.01691L7.20499 20.3299L4.51099 20.5749C4.47999 20.5779 4.44899 20.5789 4.41999 20.5789ZM19.226 8.30991L15.69 4.77391L17.811 2.65291C17.9986 2.46513 18.2531 2.35962 18.5185 2.35962C18.7839 2.35962 19.0384 2.46513 19.226 2.65291L21.347 4.77391C21.5348 4.96147 21.6403 5.216 21.6403 5.48141C21.6403 5.74681 21.5348 6.00134 21.347 6.18891L19.227 8.30891L19.226 8.30991Z" fill="#323232"/>
</svg>
