<svg width="16" height="16" viewBox="0 0 16 16" fill="none" xmlns="http://www.w3.org/2000/svg">
<path d="M15.1 14.1161L10.4625 9.47858C11.1821 8.54822 11.5714 7.41072 11.5714 6.21429C11.5714 4.78215 11.0125 3.43929 10.0018 2.42679C8.99108 1.41429 7.64465 0.857147 6.21429 0.857147C4.78393 0.857147 3.4375 1.41608 2.42679 2.42679C1.41429 3.4375 0.857147 4.78215 0.857147 6.21429C0.857147 7.64465 1.41608 8.99108 2.42679 10.0018C3.4375 11.0143 4.78215 11.5714 6.21429 11.5714C7.41072 11.5714 8.54643 11.1821 9.47679 10.4643L14.1143 15.1C14.1279 15.1136 14.144 15.1244 14.1618 15.1318C14.1796 15.1391 14.1986 15.1429 14.2179 15.1429C14.2371 15.1429 14.2561 15.1391 14.2739 15.1318C14.2917 15.1244 14.3078 15.1136 14.3214 15.1L15.1 14.3232C15.1136 14.3096 15.1244 14.2935 15.1318 14.2757C15.1391 14.2579 15.1429 14.2389 15.1429 14.2196C15.1429 14.2004 15.1391 14.1814 15.1318 14.1636C15.1244 14.1458 15.1136 14.1297 15.1 14.1161V14.1161ZM9.04286 9.04286C8.28572 9.79822 7.28215 10.2143 6.21429 10.2143C5.14643 10.2143 4.14286 9.79822 3.38572 9.04286C2.63036 8.28572 2.21429 7.28215 2.21429 6.21429C2.21429 5.14643 2.63036 4.14108 3.38572 3.38572C4.14286 2.63036 5.14643 2.21429 6.21429 2.21429C7.28215 2.21429 8.28751 2.62858 9.04286 3.38572C9.79822 4.14286 10.2143 5.14643 10.2143 6.21429C10.2143 7.28215 9.79822 8.28751 9.04286 9.04286Z" fill="#262627"/>
</svg>
