<svg width="152" height="29" viewBox="0 0 152 29" fill="none" xmlns="http://www.w3.org/2000/svg">
<path d="M27.0933 9.73779V11.3198H21.4829V9.73779H27.0933ZM22.0322 5.33594V16H20.0181V5.33594H22.0322ZM28.5874 5.33594V16H26.5732V5.33594H28.5874ZM32.4253 9.69385V16H30.4917V8.0752H32.3228L32.4253 9.69385ZM34.835 8.02393L34.8057 9.82568C34.6982 9.80615 34.5762 9.7915 34.4395 9.78174C34.3076 9.77197 34.1831 9.76709 34.0659 9.76709C33.7681 9.76709 33.5068 9.80859 33.2822 9.8916C33.0576 9.96973 32.8696 10.0845 32.7183 10.2358C32.5718 10.3872 32.4595 10.5728 32.3813 10.7925C32.3032 11.0073 32.2593 11.2515 32.2495 11.5249L31.832 11.4736C31.832 10.9707 31.8833 10.5044 31.9858 10.0747C32.0884 9.64502 32.2373 9.26904 32.4326 8.94678C32.6279 8.62451 32.8721 8.37549 33.165 8.19971C33.4629 8.01904 33.8047 7.92871 34.1904 7.92871C34.2979 7.92871 34.4126 7.93848 34.5347 7.95801C34.6616 7.97266 34.7617 7.99463 34.835 8.02393ZM37.7939 9.76709V16H35.8604V8.0752H37.6768L37.7939 9.76709ZM37.4863 11.752H36.915C36.9199 11.1758 36.998 10.6533 37.1494 10.1846C37.3008 9.71582 37.5132 9.31299 37.7866 8.97607C38.0649 8.63916 38.3945 8.38037 38.7754 8.19971C39.1562 8.01904 39.5811 7.92871 40.0498 7.92871C40.4307 7.92871 40.7749 7.98242 41.0825 8.08984C41.3901 8.19727 41.6538 8.36816 41.8735 8.60254C42.0981 8.83691 42.269 9.14453 42.3862 9.52539C42.5083 9.90137 42.5693 10.3652 42.5693 10.917V16H40.6211V10.9023C40.6211 10.541 40.5674 10.2554 40.46 10.0454C40.3574 9.83545 40.2061 9.68652 40.0059 9.59863C39.8105 9.51074 39.5688 9.4668 39.2808 9.4668C38.9829 9.4668 38.7217 9.52783 38.4971 9.6499C38.2773 9.76709 38.0918 9.93066 37.9404 10.1406C37.7939 10.3506 37.6816 10.5923 37.6035 10.8657C37.5254 11.1392 37.4863 11.4346 37.4863 11.752ZM47.8354 16.1465C47.2349 16.1465 46.6953 16.0488 46.2168 15.8535C45.7383 15.6582 45.3306 15.3872 44.9937 15.0405C44.6616 14.689 44.4053 14.2812 44.2246 13.8174C44.0488 13.3486 43.9609 12.8457 43.9609 12.3086V12.0156C43.9609 11.4053 44.0488 10.8511 44.2246 10.353C44.4004 9.8501 44.6494 9.41797 44.9717 9.05664C45.2939 8.69531 45.6797 8.41699 46.1289 8.22168C46.5781 8.02637 47.0737 7.92871 47.6157 7.92871C48.1772 7.92871 48.6729 8.02393 49.1025 8.21436C49.5322 8.3999 49.8911 8.66357 50.1792 9.00537C50.4673 9.34717 50.6846 9.75732 50.8311 10.2358C50.9775 10.7095 51.0508 11.2344 51.0508 11.8105V12.6235H44.8398V11.2905H49.1465V11.144C49.1367 10.8364 49.0781 10.5557 48.9707 10.3018C48.8633 10.043 48.6973 9.83789 48.4727 9.68652C48.248 9.53027 47.9575 9.45215 47.6011 9.45215C47.313 9.45215 47.0615 9.51562 46.8467 9.64258C46.6367 9.76465 46.4609 9.94043 46.3193 10.1699C46.1826 10.3945 46.0801 10.6631 46.0117 10.9756C45.9434 11.2881 45.9092 11.6348 45.9092 12.0156V12.3086C45.9092 12.6406 45.9531 12.9482 46.041 13.2314C46.1338 13.5146 46.2681 13.7612 46.4438 13.9712C46.6245 14.1763 46.8394 14.3374 47.0884 14.4546C47.3423 14.5669 47.6304 14.623 47.9526 14.623C48.3579 14.623 48.7241 14.5449 49.0513 14.3887C49.3833 14.2275 49.6714 13.9907 49.9155 13.6782L50.8896 14.689C50.7236 14.9331 50.499 15.1675 50.2158 15.3921C49.9375 15.6167 49.6006 15.7998 49.2051 15.9414C48.8096 16.0781 48.353 16.1465 47.8354 16.1465ZM56.0972 8.0752V9.4668H51.5562V8.0752H56.0972ZM52.772 6.12695H54.7129V13.7148C54.7129 13.9492 54.7446 14.1299 54.8081 14.2568C54.8716 14.3838 54.9668 14.4692 55.0938 14.5132C55.2207 14.5571 55.3721 14.5791 55.5479 14.5791C55.6748 14.5791 55.792 14.5718 55.8994 14.5571C56.0068 14.5425 56.0972 14.5278 56.1704 14.5132L56.1777 15.9634C56.0166 16.0171 55.8335 16.061 55.6284 16.0952C55.4282 16.1294 55.2012 16.1465 54.9473 16.1465C54.5127 16.1465 54.1318 16.0732 53.8047 15.9268C53.4775 15.7754 53.2236 15.5337 53.043 15.2017C52.8623 14.8647 52.772 14.4204 52.772 13.8687V6.12695ZM57.4668 15.0552C57.4668 14.7622 57.5669 14.5156 57.7671 14.3154C57.9673 14.1152 58.2383 14.0151 58.5801 14.0151C58.9219 14.0151 59.1929 14.1152 59.3931 14.3154C59.5933 14.5156 59.6934 14.7622 59.6934 15.0552C59.6934 15.3433 59.5933 15.5874 59.3931 15.7876C59.1929 15.9829 58.9219 16.0806 58.5801 16.0806C58.2383 16.0806 57.9673 15.9829 57.7671 15.7876C57.5669 15.5874 57.4668 15.3433 57.4668 15.0552ZM66.0068 13.832C66.0068 13.666 65.9629 13.5171 65.875 13.3853C65.7871 13.2534 65.6211 13.1338 65.377 13.0264C65.1377 12.9141 64.7861 12.8091 64.3223 12.7114C63.9121 12.6235 63.5337 12.5137 63.187 12.3818C62.8403 12.25 62.5425 12.0913 62.2935 11.9058C62.0444 11.7153 61.8491 11.4932 61.7075 11.2393C61.5708 10.9805 61.5024 10.6826 61.5024 10.3457C61.5024 10.0186 61.5732 9.71094 61.7148 9.42285C61.8564 9.12988 62.0615 8.87354 62.3301 8.65381C62.5986 8.4292 62.9258 8.25342 63.3115 8.12646C63.6973 7.99463 64.1318 7.92871 64.6152 7.92871C65.2891 7.92871 65.8677 8.03857 66.3511 8.2583C66.8394 8.47803 67.2129 8.78076 67.4717 9.1665C67.7305 9.54736 67.8599 9.97705 67.8599 10.4556H65.9263C65.9263 10.2456 65.8774 10.0552 65.7798 9.88428C65.687 9.71338 65.543 9.57666 65.3477 9.47412C65.1523 9.3667 64.9058 9.31299 64.6079 9.31299C64.3394 9.31299 64.1123 9.35693 63.9268 9.44482C63.7461 9.53271 63.6094 9.64746 63.5166 9.78906C63.4238 9.93066 63.3774 10.0869 63.3774 10.2578C63.3774 10.3848 63.4019 10.4995 63.4507 10.6021C63.5044 10.6997 63.5898 10.79 63.707 10.873C63.8242 10.9561 63.9829 11.0317 64.1831 11.1001C64.3882 11.1685 64.6396 11.2344 64.9375 11.2979C65.5283 11.415 66.0435 11.5713 66.4829 11.7666C66.9272 11.957 67.2739 12.2109 67.5229 12.5283C67.772 12.8457 67.8965 13.251 67.8965 13.7441C67.8965 14.0957 67.8208 14.418 67.6694 14.7109C67.5181 14.999 67.2983 15.2505 67.0103 15.4653C66.7222 15.6802 66.3779 15.8486 65.9775 15.9707C65.5771 16.0879 65.1255 16.1465 64.6226 16.1465C63.895 16.1465 63.2798 16.0171 62.7769 15.7583C62.2739 15.4946 61.8931 15.1626 61.6343 14.7622C61.3755 14.3569 61.2461 13.937 61.2461 13.5024H63.0991C63.1138 13.8101 63.1968 14.0566 63.3481 14.2422C63.4995 14.4277 63.6899 14.562 63.9194 14.645C64.1538 14.7231 64.4004 14.7622 64.6592 14.7622C64.9521 14.7622 65.1987 14.7231 65.3989 14.645C65.5991 14.562 65.7505 14.4521 65.853 14.3154C65.9556 14.1738 66.0068 14.0127 66.0068 13.832ZM69.0244 12.1182V11.9644C69.0244 11.3833 69.1074 10.8486 69.2734 10.3604C69.4395 9.86719 69.6812 9.43994 69.9985 9.07861C70.3159 8.71729 70.7041 8.43652 71.1631 8.23633C71.6221 8.03125 72.1445 7.92871 72.7305 7.92871C73.3262 7.92871 73.8535 8.03125 74.3125 8.23633C74.7764 8.43652 75.167 8.71729 75.4844 9.07861C75.8018 9.43994 76.0435 9.86719 76.2095 10.3604C76.3755 10.8486 76.4585 11.3833 76.4585 11.9644V12.1182C76.4585 12.6943 76.3755 13.229 76.2095 13.7222C76.0435 14.2104 75.8018 14.6377 75.4844 15.0039C75.167 15.3652 74.7788 15.646 74.3198 15.8462C73.8608 16.0464 73.3359 16.1465 72.7451 16.1465C72.1592 16.1465 71.6343 16.0464 71.1704 15.8462C70.7065 15.646 70.3159 15.3652 69.9985 15.0039C69.6812 14.6377 69.4395 14.2104 69.2734 13.7222C69.1074 13.229 69.0244 12.6943 69.0244 12.1182ZM70.958 11.9644V12.1182C70.958 12.4648 70.9922 12.7896 71.0605 13.0923C71.1289 13.395 71.2339 13.6611 71.3755 13.8906C71.5171 14.1201 71.7002 14.3008 71.9248 14.4326C72.1543 14.5596 72.4277 14.623 72.7451 14.623C73.0576 14.623 73.3262 14.5596 73.5508 14.4326C73.7754 14.3008 73.9585 14.1201 74.1001 13.8906C74.2466 13.6611 74.354 13.395 74.4224 13.0923C74.4907 12.7896 74.5249 12.4648 74.5249 12.1182V11.9644C74.5249 11.6226 74.4907 11.3027 74.4224 11.0049C74.354 10.7021 74.2466 10.436 74.1001 10.2065C73.9585 9.97217 73.7729 9.78906 73.5435 9.65723C73.3188 9.52051 73.0479 9.45215 72.7305 9.45215C72.418 9.45215 72.1494 9.52051 71.9248 9.65723C71.7002 9.78906 71.5171 9.97217 71.3755 10.2065C71.2339 10.436 71.1289 10.7021 71.0605 11.0049C70.9922 11.3027 70.958 11.6226 70.958 11.9644Z" fill="#FFFEFC"/>
<path d="M21.1523 18.8906L22.998 22.46L24.8486 18.8906H25.918L23.4668 23.3438V26H22.5244V23.3438L20.0732 18.8906H21.1523ZM26.1328 23.417V23.3047C26.1328 22.9238 26.1882 22.5706 26.2988 22.2451C26.4095 21.9163 26.569 21.6315 26.7773 21.3906C26.9857 21.1465 27.238 20.9577 27.5342 20.8242C27.8304 20.6875 28.1624 20.6191 28.5303 20.6191C28.9014 20.6191 29.235 20.6875 29.5312 20.8242C29.8307 20.9577 30.0846 21.1465 30.293 21.3906C30.5046 21.6315 30.6657 21.9163 30.7764 22.2451C30.887 22.5706 30.9424 22.9238 30.9424 23.3047V23.417C30.9424 23.7979 30.887 24.151 30.7764 24.4766C30.6657 24.8021 30.5046 25.0869 30.293 25.3311C30.0846 25.5719 29.8324 25.7607 29.5361 25.8975C29.2432 26.0309 28.9111 26.0977 28.54 26.0977C28.1689 26.0977 27.8353 26.0309 27.5391 25.8975C27.2428 25.7607 26.9889 25.5719 26.7773 25.3311C26.569 25.0869 26.4095 24.8021 26.2988 24.4766C26.1882 24.151 26.1328 23.7979 26.1328 23.417ZM27.0361 23.3047V23.417C27.0361 23.6807 27.0671 23.9297 27.1289 24.1641C27.1908 24.3952 27.2835 24.6003 27.4072 24.7793C27.5342 24.9583 27.6921 25.0999 27.8809 25.2041C28.0697 25.305 28.2894 25.3555 28.54 25.3555C28.7874 25.3555 29.0039 25.305 29.1895 25.2041C29.3783 25.0999 29.5345 24.9583 29.6582 24.7793C29.7819 24.6003 29.8747 24.3952 29.9365 24.1641C30.0016 23.9297 30.0342 23.6807 30.0342 23.417V23.3047C30.0342 23.0443 30.0016 22.7985 29.9365 22.5674C29.8747 22.333 29.7803 22.1263 29.6533 21.9473C29.5296 21.765 29.3734 21.6217 29.1846 21.5176C28.999 21.4134 28.7809 21.3613 28.5303 21.3613C28.2829 21.3613 28.0648 21.4134 27.876 21.5176C27.6904 21.6217 27.5342 21.765 27.4072 21.9473C27.2835 22.1263 27.1908 22.333 27.1289 22.5674C27.0671 22.7985 27.0361 23.0443 27.0361 23.3047ZM35.3076 24.7793V20.7168H36.2158V26H35.3516L35.3076 24.7793ZM35.4785 23.666L35.8545 23.6562C35.8545 24.0078 35.8171 24.3333 35.7422 24.6328C35.6706 24.929 35.5534 25.1862 35.3906 25.4043C35.2279 25.6224 35.0146 25.7933 34.751 25.917C34.4873 26.0374 34.1667 26.0977 33.7891 26.0977C33.5319 26.0977 33.2959 26.0602 33.0811 25.9854C32.8695 25.9105 32.6872 25.7949 32.5342 25.6387C32.3812 25.4824 32.2624 25.279 32.1777 25.0283C32.0964 24.7777 32.0557 24.4766 32.0557 24.125V20.7168H32.959V24.1348C32.959 24.3724 32.985 24.5693 33.0371 24.7256C33.0924 24.8786 33.1657 25.0007 33.2568 25.0918C33.3512 25.1797 33.4554 25.2415 33.5693 25.2773C33.6865 25.3132 33.807 25.3311 33.9307 25.3311C34.3148 25.3311 34.6191 25.2578 34.8438 25.1113C35.0684 24.9616 35.2295 24.7614 35.3271 24.5107C35.4281 24.2568 35.4785 23.9753 35.4785 23.666ZM38.4961 21.5469V26H37.5928V20.7168H38.4717L38.4961 21.5469ZM40.1465 20.6875L40.1416 21.5273C40.0667 21.5111 39.9951 21.5013 39.9268 21.498C39.8617 21.4915 39.7868 21.4883 39.7021 21.4883C39.4938 21.4883 39.3099 21.5208 39.1504 21.5859C38.9909 21.651 38.8558 21.7422 38.7451 21.8594C38.6344 21.9766 38.5465 22.1165 38.4814 22.2793C38.4196 22.4388 38.3789 22.6146 38.3594 22.8066L38.1055 22.9531C38.1055 22.6341 38.1364 22.3346 38.1982 22.0547C38.2633 21.7747 38.3626 21.5273 38.4961 21.3125C38.6296 21.0944 38.7988 20.9251 39.0039 20.8047C39.2122 20.681 39.4596 20.6191 39.7461 20.6191C39.8112 20.6191 39.8861 20.6273 39.9707 20.6436C40.0553 20.6566 40.1139 20.6712 40.1465 20.6875ZM45.6738 20.7168V21.4102H42.8174V20.7168H45.6738ZM43.7842 19.4326H44.6875V24.6914C44.6875 24.8704 44.7152 25.0055 44.7705 25.0967C44.8258 25.1878 44.8975 25.248 44.9854 25.2773C45.0732 25.3066 45.1676 25.3213 45.2686 25.3213C45.3434 25.3213 45.4215 25.3148 45.5029 25.3018C45.5876 25.2855 45.651 25.2725 45.6934 25.2627L45.6982 26C45.6266 26.0228 45.5322 26.0439 45.415 26.0635C45.3011 26.0863 45.1628 26.0977 45 26.0977C44.7786 26.0977 44.5752 26.0537 44.3896 25.9658C44.2041 25.8779 44.056 25.7314 43.9453 25.5264C43.8379 25.318 43.7842 25.0381 43.7842 24.6865V19.4326ZM48.9258 26.0977C48.5579 26.0977 48.2243 26.0358 47.9248 25.9121C47.6286 25.7852 47.373 25.6077 47.1582 25.3799C46.9466 25.152 46.7839 24.8818 46.6699 24.5693C46.556 24.2568 46.499 23.915 46.499 23.5439V23.3389C46.499 22.9092 46.5625 22.5267 46.6895 22.1914C46.8164 21.8529 46.9889 21.5664 47.207 21.332C47.4251 21.0977 47.6725 20.9202 47.9492 20.7998C48.2259 20.6794 48.5124 20.6191 48.8086 20.6191C49.1862 20.6191 49.5117 20.6842 49.7852 20.8145C50.0618 20.9447 50.2881 21.127 50.4639 21.3613C50.6396 21.5924 50.7699 21.8659 50.8545 22.1816C50.9391 22.4941 50.9814 22.8359 50.9814 23.207V23.6123H47.0361V22.875H50.0781V22.8066C50.0651 22.5723 50.0163 22.3444 49.9316 22.123C49.8503 21.9017 49.7201 21.7194 49.541 21.5762C49.362 21.4329 49.1178 21.3613 48.8086 21.3613C48.6035 21.3613 48.4147 21.4053 48.2422 21.4932C48.0697 21.5778 47.9215 21.7048 47.7979 21.874C47.6742 22.0433 47.5781 22.25 47.5098 22.4941C47.4414 22.7383 47.4072 23.0199 47.4072 23.3389V23.5439C47.4072 23.7946 47.4414 24.0306 47.5098 24.252C47.5814 24.4701 47.6839 24.6621 47.8174 24.8281C47.9541 24.9941 48.1185 25.1243 48.3105 25.2188C48.5059 25.3132 48.7272 25.3604 48.9746 25.3604C49.2936 25.3604 49.5638 25.2952 49.7852 25.165C50.0065 25.0348 50.2002 24.8607 50.3662 24.6426L50.9131 25.0771C50.7992 25.2497 50.6543 25.4141 50.4785 25.5703C50.3027 25.7266 50.0863 25.8535 49.8291 25.9512C49.5752 26.0488 49.2741 26.0977 48.9258 26.0977ZM55.1514 25.0967V22.377C55.1514 22.1686 55.109 21.988 55.0244 21.835C54.943 21.6787 54.8193 21.5583 54.6533 21.4736C54.4873 21.389 54.2822 21.3467 54.0381 21.3467C53.8102 21.3467 53.61 21.3857 53.4375 21.4639C53.2682 21.542 53.1348 21.6445 53.0371 21.7715C52.9427 21.8984 52.8955 22.0352 52.8955 22.1816H51.9922C51.9922 21.9928 52.041 21.8057 52.1387 21.6201C52.2363 21.4346 52.3763 21.2669 52.5586 21.1172C52.7441 20.9642 52.9655 20.8438 53.2227 20.7559C53.4831 20.6647 53.7728 20.6191 54.0918 20.6191C54.4759 20.6191 54.8145 20.6842 55.1074 20.8145C55.4036 20.9447 55.6348 21.1416 55.8008 21.4053C55.9701 21.6657 56.0547 21.9928 56.0547 22.3867V24.8477C56.0547 25.0234 56.0693 25.2106 56.0986 25.4092C56.1312 25.6077 56.1784 25.7786 56.2402 25.9219V26H55.2979C55.2523 25.8958 55.2165 25.7575 55.1904 25.585C55.1644 25.4092 55.1514 25.2464 55.1514 25.0967ZM55.3076 22.7969L55.3174 23.4316H54.4043C54.1471 23.4316 53.9176 23.4528 53.7158 23.4951C53.514 23.5342 53.3447 23.5944 53.208 23.6758C53.0713 23.7572 52.9671 23.8597 52.8955 23.9834C52.8239 24.1038 52.7881 24.2454 52.7881 24.4082C52.7881 24.5742 52.8255 24.7256 52.9004 24.8623C52.9753 24.999 53.0876 25.1081 53.2373 25.1895C53.3903 25.2676 53.5775 25.3066 53.7988 25.3066C54.0755 25.3066 54.3197 25.248 54.5312 25.1309C54.7428 25.0137 54.9105 24.8704 55.0342 24.7012C55.1611 24.5319 55.2295 24.3675 55.2393 24.208L55.625 24.6426C55.6022 24.7793 55.5404 24.9307 55.4395 25.0967C55.3385 25.2627 55.2035 25.4222 55.0342 25.5752C54.8682 25.7249 54.6696 25.8503 54.4385 25.9512C54.2106 26.0488 53.9535 26.0977 53.667 26.0977C53.3089 26.0977 52.9948 26.0277 52.7246 25.8877C52.4577 25.7477 52.2493 25.5605 52.0996 25.3262C51.9531 25.0885 51.8799 24.8232 51.8799 24.5303C51.8799 24.2471 51.9352 23.998 52.0459 23.7832C52.1566 23.5651 52.3161 23.3844 52.5244 23.2412C52.7327 23.0947 52.9834 22.984 53.2764 22.9092C53.5693 22.8343 53.8965 22.7969 54.2578 22.7969H55.3076ZM58.374 21.7666V26H57.4658V20.7168H58.3252L58.374 21.7666ZM58.1885 23.1582L57.7686 23.1436C57.7718 22.7822 57.819 22.4486 57.9102 22.1426C58.0013 21.8333 58.1364 21.5648 58.3154 21.3369C58.4945 21.109 58.7174 20.9333 58.9844 20.8096C59.2513 20.6826 59.5605 20.6191 59.9121 20.6191C60.1595 20.6191 60.3874 20.6549 60.5957 20.7266C60.804 20.7949 60.9847 20.904 61.1377 21.0537C61.2907 21.2035 61.4095 21.3955 61.4941 21.6299C61.5788 21.8643 61.6211 22.1475 61.6211 22.4795V26H60.7178V22.5234C60.7178 22.2467 60.6706 22.0254 60.5762 21.8594C60.485 21.6934 60.3548 21.5729 60.1855 21.498C60.0163 21.4199 59.8177 21.3809 59.5898 21.3809C59.3229 21.3809 59.0999 21.4281 58.9209 21.5225C58.7419 21.6169 58.5986 21.7471 58.4912 21.9131C58.3838 22.0791 58.3057 22.2695 58.2568 22.4844C58.2113 22.696 58.1885 22.9206 58.1885 23.1582ZM61.6113 22.6602L61.0059 22.8457C61.0091 22.556 61.0563 22.2777 61.1475 22.0107C61.2419 21.7438 61.377 21.5062 61.5527 21.2979C61.7318 21.0895 61.9515 20.9251 62.2119 20.8047C62.4723 20.681 62.7702 20.6191 63.1055 20.6191C63.3887 20.6191 63.6393 20.6566 63.8574 20.7314C64.0788 20.8063 64.2643 20.9219 64.4141 21.0781C64.5671 21.2311 64.6826 21.4281 64.7607 21.6689C64.8389 21.9098 64.8779 22.1963 64.8779 22.5283V26H63.9697V22.5186C63.9697 22.2223 63.9225 21.9928 63.8281 21.8301C63.737 21.6641 63.6068 21.5485 63.4375 21.4834C63.2715 21.415 63.0729 21.3809 62.8418 21.3809C62.6432 21.3809 62.4674 21.415 62.3145 21.4834C62.1615 21.5518 62.0329 21.6462 61.9287 21.7666C61.8245 21.8838 61.7448 22.0189 61.6895 22.1719C61.6374 22.3249 61.6113 22.4876 61.6113 22.6602ZM67.0654 24.9258V25.6533C67.0654 25.9495 66.9906 26.262 66.8408 26.5908C66.6911 26.9229 66.4811 27.1995 66.2109 27.4209L65.6982 27.0645C65.8024 26.9212 65.8903 26.7747 65.9619 26.625C66.0335 26.4785 66.0872 26.3255 66.123 26.166C66.1621 26.0098 66.1816 25.8438 66.1816 25.668V24.9258H67.0654ZM72.1826 25.4531L73.6523 20.7168H74.6191L72.5 26.8154C72.4512 26.9456 72.3861 27.0856 72.3047 27.2354C72.2266 27.3883 72.1257 27.5332 72.002 27.6699C71.8783 27.8066 71.7285 27.9173 71.5527 28.002C71.3802 28.0898 71.1735 28.1338 70.9326 28.1338C70.861 28.1338 70.7699 28.124 70.6592 28.1045C70.5485 28.085 70.4704 28.0687 70.4248 28.0557L70.4199 27.3232C70.446 27.3265 70.4867 27.3298 70.542 27.333C70.6006 27.3395 70.6413 27.3428 70.6641 27.3428C70.8691 27.3428 71.0433 27.3151 71.1865 27.2598C71.3298 27.2077 71.4502 27.1182 71.5479 26.9912C71.6488 26.8675 71.735 26.6966 71.8066 26.4785L72.1826 25.4531ZM71.1035 20.7168L72.4756 24.8184L72.71 25.7705L72.0605 26.1025L70.1172 20.7168H71.1035ZM75.1172 23.417V23.3047C75.1172 22.9238 75.1725 22.5706 75.2832 22.2451C75.3939 21.9163 75.5534 21.6315 75.7617 21.3906C75.9701 21.1465 76.2223 20.9577 76.5186 20.8242C76.8148 20.6875 77.1468 20.6191 77.5146 20.6191C77.8857 20.6191 78.2194 20.6875 78.5156 20.8242C78.8151 20.9577 79.069 21.1465 79.2773 21.3906C79.4889 21.6315 79.6501 21.9163 79.7607 22.2451C79.8714 22.5706 79.9268 22.9238 79.9268 23.3047V23.417C79.9268 23.7979 79.8714 24.151 79.7607 24.4766C79.6501 24.8021 79.4889 25.0869 79.2773 25.3311C79.069 25.5719 78.8167 25.7607 78.5205 25.8975C78.2275 26.0309 77.8955 26.0977 77.5244 26.0977C77.1533 26.0977 76.8197 26.0309 76.5234 25.8975C76.2272 25.7607 75.9733 25.5719 75.7617 25.3311C75.5534 25.0869 75.3939 24.8021 75.2832 24.4766C75.1725 24.151 75.1172 23.7979 75.1172 23.417ZM76.0205 23.3047V23.417C76.0205 23.6807 76.0514 23.9297 76.1133 24.1641C76.1751 24.3952 76.2679 24.6003 76.3916 24.7793C76.5186 24.9583 76.6764 25.0999 76.8652 25.2041C77.054 25.305 77.2738 25.3555 77.5244 25.3555C77.7718 25.3555 77.9883 25.305 78.1738 25.2041C78.3626 25.0999 78.5189 24.9583 78.6426 24.7793C78.7663 24.6003 78.859 24.3952 78.9209 24.1641C78.986 23.9297 79.0186 23.6807 79.0186 23.417V23.3047C79.0186 23.0443 78.986 22.7985 78.9209 22.5674C78.859 22.333 78.7646 22.1263 78.6377 21.9473C78.514 21.765 78.3577 21.6217 78.1689 21.5176C77.9834 21.4134 77.7653 21.3613 77.5146 21.3613C77.2673 21.3613 77.0492 21.4134 76.8604 21.5176C76.6748 21.6217 76.5186 21.765 76.3916 21.9473C76.2679 22.1263 76.1751 22.333 76.1133 22.5674C76.0514 22.7985 76.0205 23.0443 76.0205 23.3047ZM84.292 24.7793V20.7168H85.2002V26H84.3359L84.292 24.7793ZM84.4629 23.666L84.8389 23.6562C84.8389 24.0078 84.8014 24.3333 84.7266 24.6328C84.6549 24.929 84.5378 25.1862 84.375 25.4043C84.2122 25.6224 83.999 25.7933 83.7354 25.917C83.4717 26.0374 83.151 26.0977 82.7734 26.0977C82.5163 26.0977 82.2803 26.0602 82.0654 25.9854C81.8538 25.9105 81.6715 25.7949 81.5186 25.6387C81.3656 25.4824 81.2467 25.279 81.1621 25.0283C81.0807 24.7777 81.04 24.4766 81.04 24.125V20.7168H81.9434V24.1348C81.9434 24.3724 81.9694 24.5693 82.0215 24.7256C82.0768 24.8786 82.1501 25.0007 82.2412 25.0918C82.3356 25.1797 82.4398 25.2415 82.5537 25.2773C82.6709 25.3132 82.7913 25.3311 82.915 25.3311C83.2992 25.3311 83.6035 25.2578 83.8281 25.1113C84.0527 24.9616 84.2139 24.7614 84.3115 24.5107C84.4124 24.2568 84.4629 23.9753 84.4629 23.666ZM87.4805 21.5469V26H86.5771V20.7168H87.4561L87.4805 21.5469ZM89.1309 20.6875L89.126 21.5273C89.0511 21.5111 88.9795 21.5013 88.9111 21.498C88.846 21.4915 88.7712 21.4883 88.6865 21.4883C88.4782 21.4883 88.2943 21.5208 88.1348 21.5859C87.9753 21.651 87.8402 21.7422 87.7295 21.8594C87.6188 21.9766 87.5309 22.1165 87.4658 22.2793C87.404 22.4388 87.3633 22.6146 87.3438 22.8066L87.0898 22.9531C87.0898 22.6341 87.1208 22.3346 87.1826 22.0547C87.2477 21.7747 87.347 21.5273 87.4805 21.3125C87.6139 21.0944 87.7832 20.9251 87.9883 20.8047C88.1966 20.681 88.444 20.6191 88.7305 20.6191C88.7956 20.6191 88.8704 20.6273 88.9551 20.6436C89.0397 20.6566 89.0983 20.6712 89.1309 20.6875ZM94.6582 20.7168V21.4102H91.8018V20.7168H94.6582ZM92.7686 19.4326H93.6719V24.6914C93.6719 24.8704 93.6995 25.0055 93.7549 25.0967C93.8102 25.1878 93.8818 25.248 93.9697 25.2773C94.0576 25.3066 94.152 25.3213 94.2529 25.3213C94.3278 25.3213 94.4059 25.3148 94.4873 25.3018C94.5719 25.2855 94.6354 25.2725 94.6777 25.2627L94.6826 26C94.611 26.0228 94.5166 26.0439 94.3994 26.0635C94.2855 26.0863 94.1471 26.0977 93.9844 26.0977C93.763 26.0977 93.5596 26.0537 93.374 25.9658C93.1885 25.8779 93.0404 25.7314 92.9297 25.5264C92.8223 25.318 92.7686 25.0381 92.7686 24.6865V19.4326ZM95.3809 23.417V23.3047C95.3809 22.9238 95.4362 22.5706 95.5469 22.2451C95.6576 21.9163 95.8171 21.6315 96.0254 21.3906C96.2337 21.1465 96.486 20.9577 96.7822 20.8242C97.0785 20.6875 97.4105 20.6191 97.7783 20.6191C98.1494 20.6191 98.4831 20.6875 98.7793 20.8242C99.0788 20.9577 99.3327 21.1465 99.541 21.3906C99.7526 21.6315 99.9137 21.9163 100.024 22.2451C100.135 22.5706 100.19 22.9238 100.19 23.3047V23.417C100.19 23.7979 100.135 24.151 100.024 24.4766C99.9137 24.8021 99.7526 25.0869 99.541 25.3311C99.3327 25.5719 99.0804 25.7607 98.7842 25.8975C98.4912 26.0309 98.1592 26.0977 97.7881 26.0977C97.417 26.0977 97.0833 26.0309 96.7871 25.8975C96.4909 25.7607 96.237 25.5719 96.0254 25.3311C95.8171 25.0869 95.6576 24.8021 95.5469 24.4766C95.4362 24.151 95.3809 23.7979 95.3809 23.417ZM96.2842 23.3047V23.417C96.2842 23.6807 96.3151 23.9297 96.377 24.1641C96.4388 24.3952 96.5316 24.6003 96.6553 24.7793C96.7822 24.9583 96.9401 25.0999 97.1289 25.2041C97.3177 25.305 97.5374 25.3555 97.7881 25.3555C98.0355 25.3555 98.252 25.305 98.4375 25.2041C98.6263 25.0999 98.7826 24.9583 98.9062 24.7793C99.0299 24.6003 99.1227 24.3952 99.1846 24.1641C99.2497 23.9297 99.2822 23.6807 99.2822 23.417V23.3047C99.2822 23.0443 99.2497 22.7985 99.1846 22.5674C99.1227 22.333 99.0283 22.1263 98.9014 21.9473C98.7777 21.765 98.6214 21.6217 98.4326 21.5176C98.2471 21.4134 98.029 21.3613 97.7783 21.3613C97.5309 21.3613 97.3128 21.4134 97.124 21.5176C96.9385 21.6217 96.7822 21.765 96.6553 21.9473C96.5316 22.1263 96.4388 22.333 96.377 22.5674C96.3151 22.7985 96.2842 23.0443 96.2842 23.3047ZM101.084 23.417V23.3047C101.084 22.9238 101.139 22.5706 101.25 22.2451C101.361 21.9163 101.52 21.6315 101.729 21.3906C101.937 21.1465 102.189 20.9577 102.485 20.8242C102.782 20.6875 103.114 20.6191 103.481 20.6191C103.853 20.6191 104.186 20.6875 104.482 20.8242C104.782 20.9577 105.036 21.1465 105.244 21.3906C105.456 21.6315 105.617 21.9163 105.728 22.2451C105.838 22.5706 105.894 22.9238 105.894 23.3047V23.417C105.894 23.7979 105.838 24.151 105.728 24.4766C105.617 24.8021 105.456 25.0869 105.244 25.3311C105.036 25.5719 104.784 25.7607 104.487 25.8975C104.194 26.0309 103.862 26.0977 103.491 26.0977C103.12 26.0977 102.786 26.0309 102.49 25.8975C102.194 25.7607 101.94 25.5719 101.729 25.3311C101.52 25.0869 101.361 24.8021 101.25 24.4766C101.139 24.151 101.084 23.7979 101.084 23.417ZM101.987 23.3047V23.417C101.987 23.6807 102.018 23.9297 102.08 24.1641C102.142 24.3952 102.235 24.6003 102.358 24.7793C102.485 24.9583 102.643 25.0999 102.832 25.2041C103.021 25.305 103.241 25.3555 103.491 25.3555C103.739 25.3555 103.955 25.305 104.141 25.2041C104.329 25.0999 104.486 24.9583 104.609 24.7793C104.733 24.6003 104.826 24.3952 104.888 24.1641C104.953 23.9297 104.985 23.6807 104.985 23.417V23.3047C104.985 23.0443 104.953 22.7985 104.888 22.5674C104.826 22.333 104.731 22.1263 104.604 21.9473C104.481 21.765 104.325 21.6217 104.136 21.5176C103.95 21.4134 103.732 21.3613 103.481 21.3613C103.234 21.3613 103.016 21.4134 102.827 21.5176C102.642 21.6217 102.485 21.765 102.358 21.9473C102.235 22.1263 102.142 22.333 102.08 22.5674C102.018 22.7985 101.987 23.0443 101.987 23.3047ZM108.008 18.5V26H107.1V18.5H108.008ZM112.534 24.5986C112.534 24.4684 112.505 24.348 112.446 24.2373C112.391 24.1234 112.275 24.0208 112.1 23.9297C111.927 23.8353 111.667 23.7539 111.318 23.6855C111.025 23.6237 110.76 23.5505 110.522 23.4658C110.288 23.3812 110.088 23.2786 109.922 23.1582C109.759 23.0378 109.634 22.8962 109.546 22.7334C109.458 22.5706 109.414 22.3802 109.414 22.1621C109.414 21.9538 109.46 21.7568 109.551 21.5713C109.645 21.3857 109.777 21.2214 109.946 21.0781C110.119 20.9349 110.326 20.8226 110.566 20.7412C110.807 20.6598 111.076 20.6191 111.372 20.6191C111.795 20.6191 112.157 20.694 112.456 20.8438C112.756 20.9935 112.985 21.1937 113.145 21.4443C113.304 21.6917 113.384 21.9668 113.384 22.2695H112.48C112.48 22.123 112.437 21.9814 112.349 21.8447C112.264 21.7048 112.139 21.5892 111.973 21.498C111.81 21.4069 111.61 21.3613 111.372 21.3613C111.121 21.3613 110.918 21.4004 110.762 21.4785C110.609 21.5534 110.496 21.6494 110.425 21.7666C110.356 21.8838 110.322 22.0075 110.322 22.1377C110.322 22.2354 110.339 22.3232 110.371 22.4014C110.407 22.4762 110.469 22.5462 110.557 22.6113C110.645 22.6732 110.768 22.7318 110.928 22.7871C111.087 22.8424 111.291 22.8978 111.538 22.9531C111.971 23.0508 112.327 23.168 112.607 23.3047C112.887 23.4414 113.096 23.609 113.232 23.8076C113.369 24.0062 113.438 24.2471 113.438 24.5303C113.438 24.7614 113.389 24.973 113.291 25.165C113.197 25.3571 113.058 25.5231 112.876 25.6631C112.697 25.7998 112.482 25.9072 112.231 25.9854C111.984 26.0602 111.706 26.0977 111.396 26.0977C110.931 26.0977 110.537 26.0146 110.215 25.8486C109.893 25.6826 109.648 25.4678 109.482 25.2041C109.316 24.9404 109.233 24.6621 109.233 24.3691H110.142C110.155 24.6165 110.226 24.8135 110.356 24.96C110.487 25.1032 110.646 25.2057 110.835 25.2676C111.024 25.3262 111.211 25.3555 111.396 25.3555C111.644 25.3555 111.851 25.3229 112.017 25.2578C112.186 25.1927 112.314 25.1032 112.402 24.9893C112.49 24.8753 112.534 24.7451 112.534 24.5986Z" fill="#D8D8D8"/>
<path d="M6 6V24" stroke="#FFFEFC" stroke-width="1.4" stroke-linecap="round"/>
<path d="M11 6V24" stroke="#FFFEFC" stroke-width="1.4" stroke-linecap="round"/>
<path d="M14 6V7" stroke="#FFFEFC" stroke-width="1.4" stroke-linecap="round"/>
<path d="M1 6V24" stroke="#FFFEFC" stroke-width="1.4" stroke-linecap="round"/>
</svg>
