<svg width="120" height="120" viewBox="0 0 120 120" fill="none" xmlns="http://www.w3.org/2000/svg">
<circle cx="60" cy="60" r="60" fill="#262627"/>
<path fill-rule="evenodd" clip-rule="evenodd" d="M54.4541 93.5038C51.7911 94.4131 48.8522 93.9824 46.5628 92.3481C44.2731 90.7139 42.9144 88.0762 42.9144 85.2662C42.9144 71.565 42.9144 49.4359 42.9144 35.7327C42.9144 32.9227 44.2731 30.285 46.5628 28.6507C48.8522 27.0165 51.7911 26.5879 54.4541 27.4971C65.6966 31.3365 82.3374 37.0205 91.1033 40.0147C94.6303 41.2184 97 44.529 97 48.2503V72.7506C97 76.4719 94.6303 79.7825 91.1033 80.9862C82.3374 83.9804 65.6966 89.6624 54.4541 93.5038Z" stroke="black" stroke-width="0.0272054" stroke-miterlimit="1.5" stroke-linecap="round" stroke-linejoin="round"/>
<path fill-rule="evenodd" clip-rule="evenodd" d="M33.8327 94.7396C31.2282 95.3905 28.4691 94.8057 26.353 93.1574C24.2372 91.5071 23.0001 88.9755 23.0001 86.2958C23.0001 72.3582 23.0001 48.6429 23.0001 34.7053C23.0001 32.0236 24.2372 29.494 26.353 27.8437C28.4691 26.1934 31.2282 25.6106 33.8327 26.2595C49.3973 30.1449 77.6173 37.1888 90.3962 40.3793C94.2773 41.3487 97 44.8296 97 48.8252C97 55.4685 97 65.5306 97 72.1759C97 76.1695 94.2773 79.6524 90.3962 80.6198C77.6173 83.8103 49.3973 90.8542 33.8327 94.7396Z" stroke="black" stroke-width="0.0267149" stroke-miterlimit="1.5" stroke-linecap="round" stroke-linejoin="round"/>
<path fill-rule="evenodd" clip-rule="evenodd" d="M54.4541 93.5038C51.7911 94.4131 48.8522 93.9824 46.5628 92.3481C44.2731 90.7139 42.9144 88.0762 42.9144 85.2662C42.9144 71.565 42.9144 49.4359 42.9144 35.7327C42.9144 32.9227 44.2731 30.285 46.5628 28.6507C48.8522 27.0165 51.7911 26.5879 54.4541 27.4971C65.6966 31.3365 82.3374 37.0205 91.1033 40.0147C94.6303 41.2184 97 44.529 97 48.2503V72.7506C97 76.4719 94.6303 79.7825 91.1033 80.9862C82.3374 83.9804 65.6966 89.6624 54.4541 93.5038Z" fill="white" stroke="white" stroke-width="0.0135898" stroke-miterlimit="1.5" stroke-linecap="round" stroke-linejoin="round"/>
<path fill-rule="evenodd" clip-rule="evenodd" d="M33.8327 94.7396C31.2282 95.3905 28.4691 94.8057 26.353 93.1574C24.2372 91.5071 23.0001 88.9755 23.0001 86.2958C23.0001 72.3582 23.0001 48.6429 23.0001 34.7053C23.0001 32.0236 24.2372 29.494 26.353 27.8437C28.4691 26.1934 31.2282 25.6106 33.8327 26.2595C49.3973 30.1449 77.6173 37.1888 90.3962 40.3793C94.2773 41.3487 97 44.8296 97 48.8252C97 55.4685 97 65.5306 97 72.1759C97 76.1695 94.2773 79.6524 90.3962 80.6198C77.6173 83.8103 49.3973 90.8542 33.8327 94.7396Z" fill="white" stroke="white" stroke-width="0.0133574" stroke-miterlimit="1.5" stroke-linecap="round" stroke-linejoin="round"/>
<path fill-rule="evenodd" clip-rule="evenodd" d="M56.1571 89.8242C53.4941 90.7331 50.5553 90.3039 48.2657 88.67C45.9762 87.0362 44.6174 84.3978 44.6174 81.5882C44.6174 69.6011 44.6174 51.3996 44.6174 39.4125C44.6174 36.601 45.9762 33.9645 48.2657 32.3306C50.5553 30.6968 53.4941 30.2658 56.1571 31.1765C65.9816 34.5308 79.6963 39.2159 87.4208 41.8525C90.9475 43.0571 93.3174 46.3681 93.3174 50.0903C93.3174 56.0397 93.3174 64.961 93.3174 70.9104C93.3174 74.6325 90.9475 77.9417 87.4208 79.1464C79.6963 81.7847 65.9816 86.4681 56.1571 89.8242Z" fill="black" fill-opacity="0.53" stroke="black" stroke-width="0.0136091" stroke-miterlimit="1.5" stroke-linecap="round" stroke-linejoin="round"/>
<path fill-rule="evenodd" clip-rule="evenodd" d="M37.5187 91.0614C34.9142 91.7106 32.155 91.1281 30.0391 89.4781C27.9231 87.828 26.6861 85.2978 26.6861 82.6162V38.3829C26.6861 35.7031 27.9231 33.1711 30.0391 31.5228C32.155 29.8727 34.9142 29.2884 37.5187 29.9395C51.4526 33.4164 75.2239 39.3513 86.7137 42.2187C90.5946 43.1871 93.3174 46.6694 93.3174 50.6639V70.337C93.3174 74.3315 90.5946 77.812 86.7137 78.7804C75.2239 81.6496 51.4526 87.5827 37.5187 91.0614Z" fill="black" fill-opacity="0.53" stroke="black" stroke-width="0.0133607" stroke-miterlimit="1.5" stroke-linecap="round" stroke-linejoin="round"/>
</svg>
