<svg width="169" height="169" viewBox="0 0 169 169" fill="none" xmlns="http://www.w3.org/2000/svg">
<mask id="mask0_220_842" style="mask-type:alpha" maskUnits="userSpaceOnUse" x="0" y="0" width="169" height="169">
<circle cx="84.2925" cy="84.2925" r="84.2925" fill="white"/>
</mask>
<g mask="url(#mask0_220_842)">
<path d="M32.5001 186.483L41.5995 148.152C77.4754 133.237 116.792 128.591 155.156 134.736C155.156 134.736 186.061 335.649 186.061 345.515C133.418 362.166 76.6981 360.578 25.0693 341.008C18.6006 330.32 49.9049 302.436 32.5001 186.483Z" fill="#111111"/>
<mask id="mask1_220_842" style="mask-type:alpha" maskUnits="userSpaceOnUse" x="24" y="132" width="163" height="225">
<path fill-rule="evenodd" clip-rule="evenodd" d="M32.5001 186.483L41.5995 148.152C77.4754 133.237 116.792 128.591 155.156 134.736C155.156 134.736 186.061 335.649 186.061 345.515C133.418 362.166 76.6981 360.578 25.0693 341.008C18.6006 330.32 49.9049 302.436 32.5001 186.483Z" fill="white"/>
</mask>
<g mask="url(#mask1_220_842)">
<ellipse cx="95.3652" cy="142.19" rx="37.7504" ry="37.3581" fill="#F5F6F7"/>
<path fill-rule="evenodd" clip-rule="evenodd" d="M95.3657 180.633C116.354 180.239 133.2 163.182 133.332 142.19C133.461 132.073 129.689 122.294 122.8 114.884C119.305 111.131 115.098 108.11 110.425 105.996C105.667 103.926 100.554 102.796 95.3665 102.666C84.825 102.569 74.688 106.719 67.2409 114.181C59.876 121.57 55.7836 131.605 55.8807 142.037C55.9778 152.469 60.2563 162.426 67.7575 169.677C75.1727 176.8 85.084 180.733 95.3657 180.633ZM129.713 128.041C131.703 132.499 132.786 137.309 132.899 142.19C132.894 147.093 131.913 151.946 130.015 156.467C128.06 160.949 125.221 164.99 121.667 168.348C114.561 175.032 105.119 178.664 95.3652 178.465C85.7378 178.358 76.5358 174.482 69.733 167.668C62.9979 160.91 59.2568 151.731 59.3485 142.19C59.4922 132.748 63.4194 123.758 70.2496 117.237C77.0208 110.764 85.9982 107.105 95.3652 106.999C104.86 106.824 114.073 110.228 121.173 116.534C124.769 119.753 127.674 123.667 129.713 128.041Z" fill="#111111"/>
<ellipse cx="95.3652" cy="135.52" rx="34.3403" ry="37.3581" fill="#F5F6F7"/>
<path fill-rule="evenodd" clip-rule="evenodd" d="M120.474 161.658C126.558 154.304 129.898 145.065 129.922 135.52C130.101 125.89 126.95 116.493 121.002 108.916C117.94 105.069 114.111 101.901 109.758 99.6127C100.699 94.9342 89.9691 94.7805 80.7797 99.1975C76.2678 101.376 72.2544 104.462 68.991 108.264C55.8475 123.952 56.082 146.873 69.5436 162.289C76.0657 169.721 85.4782 173.976 95.3661 173.962C105.119 173.676 114.272 169.191 120.474 161.658ZM126.746 121.914C128.442 126.256 129.37 130.86 129.489 135.52H129.489C129.58 144.949 126.118 154.065 119.791 161.056C113.58 167.993 104.676 171.908 95.3657 171.795C86.192 171.605 77.5481 167.46 71.656 160.426C65.7811 153.47 62.6209 144.624 62.759 135.52C62.8577 126.507 66.2136 117.834 72.2073 111.102C78.0767 104.426 86.4774 100.518 95.3648 100.329C104.39 100.239 113.046 103.906 119.262 110.45C122.46 113.763 125 117.653 126.746 121.914Z" fill="#111111"/>
</g>
<path d="M102.424 134.41C134.447 137.694 150.048 127.02 150.048 127.02C122.951 108.956 151.69 94.9973 134.445 78.5754C117.2 62.1535 131.718 37.0188 102.422 33.0042L98.7272 44.4999C108.991 75.7015 92.1584 109.572 92.1584 109.572L102.424 134.41Z" fill="#111111"/>
<path d="M66.8647 143.786L73.6857 93.7654L108.685 99.7183C109.344 113.312 110.714 126.862 112.79 140.312" fill="#F5F6F7"/>
<mask id="mask2_220_842" style="mask-type:alpha" maskUnits="userSpaceOnUse" x="66" y="93" width="47" height="51">
<path fill-rule="evenodd" clip-rule="evenodd" d="M66.8647 143.786L73.6857 93.7654L108.685 99.7183C109.344 113.312 110.714 126.862 112.79 140.312" fill="white"/>
</mask>
<g mask="url(#mask2_220_842)">
<path d="M67.3037 111.447C88.8758 138.105 107.616 127.058 112.79 140.312C117.965 153.567 112.79 99.7186 112.79 99.7186L97.052 97.604L70.2491 107.029" fill="#CFCFD0"/>
</g>
<path d="M66.8647 143.786L73.6857 93.7654L108.685 99.7183C109.344 113.312 110.714 126.862 112.79 140.312" stroke="#111111" stroke-width="4.33409" stroke-linecap="round" stroke-linejoin="round"/>
<path d="M115.356 76.5222C130.341 67.285 133.215 87.9153 112.79 99.7183Z" fill="#F5F6F7"/>
<path d="M115.243 76.338C116.694 75.2957 118.28 74.455 119.958 73.839C121.88 73.0256 124.081 73.2202 125.831 74.3584C127.581 75.4965 128.651 77.4295 128.687 79.5167C128.889 81.4552 128.715 83.4143 128.177 85.2875C127.22 88.9453 125.259 92.2623 122.514 94.8628C119.807 97.3592 116.491 99.0988 112.899 99.9068C112.777 99.9352 112.656 99.8598 112.627 99.7382C112.616 99.6648 112.635 99.59 112.682 99.5319C114.974 96.6667 117.419 94.4667 119.383 91.8662C121.551 89.5479 123.406 86.955 124.9 84.1541C126.087 81.3877 126.492 77.8008 124.444 76.0424C123.248 75.1321 121.714 74.7905 120.245 75.1076C118.589 75.4265 116.983 75.9647 115.47 76.7077L115.45 76.7168C115.348 76.7596 115.23 76.7182 115.176 76.621C115.123 76.5238 115.152 76.4021 115.243 76.3389V76.338Z" fill="#111111"/>
<path d="M98.7293 44.4994C98.7293 44.4994 69.99 44.9103 81.4848 72.0066C89.7335 91.4493 77.6929 105.185 79.0274 119.887C81.4467 121.281 84.2811 121.772 87.0281 121.274C114.636 117.085 117.512 93.8097 116.639 66.8663C98.9725 62.9566 98.7293 44.4994 98.7293 44.4994Z" fill="#F5F6F7"/>
<mask id="mask3_220_842" style="mask-type:alpha" maskUnits="userSpaceOnUse" x="78" y="44" width="39" height="78">
<path fill-rule="evenodd" clip-rule="evenodd" d="M98.7293 44.4994C98.7293 44.4994 69.99 44.9103 81.4848 72.0066C89.7335 91.4493 77.6929 105.185 79.0274 119.887C81.4467 121.281 84.2811 121.772 87.0281 121.274C114.636 117.085 117.512 93.8097 116.639 66.8663C98.9725 62.9566 98.7293 44.4994 98.7293 44.4994Z" fill="white"/>
</mask>
<g mask="url(#mask3_220_842)">
<ellipse opacity="0.27" cx="112.756" cy="91.7875" rx="9.89343" ry="7.53352" transform="rotate(-2.5189 112.756 91.7875)" fill="#CFCFD0"/>
<rect x="72.4272" y="69.5184" width="7.03467" height="12.975" rx="3.51733" transform="rotate(1.5954 72.4272 69.5184)" fill="#111111"/>
<rect x="99.4866" y="69.1727" width="7.03467" height="12.975" rx="3.51733" transform="rotate(1.5948 99.4866 69.1727)" fill="#111111"/>
<path d="M75.2962 61.3057C68.0626 63.1988 69.9297 67.165 74.5291 66.2765C79.1284 65.388 80.023 60.0692 75.2962 61.3057Z" fill="#111111"/>
<path d="M103.029 60.7015C110.146 62.9943 108.613 66.5655 104.069 65.4222C99.5251 64.2789 98.3787 59.2037 103.029 60.7015Z" fill="#111111"/>
<path d="M93.2276 84.6738C93.2073 87.0519 91.1789 86.0919 88.6673 86.0702C86.1557 86.0486 84.1113 86.9743 84.1317 84.5966C84.2862 82.1838 86.2989 80.3121 88.7166 80.3328C91.1342 80.3535 93.1145 82.2595 93.2276 84.6746V84.6738Z" fill="#CFCFD0"/>
<path d="M78.9126 97.9166C83.1994 114.817 98.8702 106.636 98.4793 95.9875C98.4501 95.4368 98.0796 94.9631 97.5522 94.8021C91.6062 93.2602 85.3109 93.8078 79.7204 96.3533C79.0999 96.601 78.7557 97.2671 78.9126 97.9166Z" fill="#CFCFD0"/>
<mask id="mask4_220_842" style="mask-type:alpha" maskUnits="userSpaceOnUse" x="78" y="93" width="21" height="15">
<path fill-rule="evenodd" clip-rule="evenodd" d="M78.9126 97.9166C83.1994 114.817 98.8702 106.636 98.4793 95.9875C98.4501 95.4368 98.0796 94.9631 97.5522 94.8021C91.6062 93.2602 85.3109 93.8078 79.7204 96.3533C79.0999 96.601 78.7557 97.2671 78.9126 97.9166Z" fill="white"/>
</mask>
<g mask="url(#mask4_220_842)">
<ellipse opacity="0.29" cx="91.7534" cy="106.565" rx="8.741" ry="7.8018" transform="rotate(-22.8319 91.7534 106.565)" fill="#111111"/>
<path d="M81.7371 94.9667C81.7483 95.9724 81.9741 96.964 82.3994 97.8754C84.3644 99.4387 93.1046 97.9152 94.2219 96.8287C94.391 95.5187 94.4055 94.1933 94.2652 92.8799L83.0248 94.2373" fill="white"/>
</g>
</g>
<path fill-rule="evenodd" clip-rule="evenodd" d="M98.7293 44.4994C98.7293 44.4994 69.99 44.9103 81.4848 72.0066C89.7335 91.4493 77.6929 105.185 79.0274 119.887C81.4467 121.281 84.2811 121.772 87.0281 121.274C114.636 117.085 117.512 93.8097 116.639 66.8663C98.9725 62.9566 98.7293 44.4994 98.7293 44.4994Z" stroke="#111111" stroke-width="4.33409" stroke-linecap="round" stroke-linejoin="round"/>
<path d="M101.063 37.2394L102.425 33.0041C88.0553 20.277 55.6203 30.1302 51.9272 59.6891C48.2341 89.2481 21.5452 77.7532 30.9892 97.8725C40.4332 117.992 19.0518 127.897 19.0518 127.897C19.0518 127.897 69.99 143.033 88.8762 138.107C83.422 133.487 79.9061 126.983 79.0274 119.889C77.6929 105.187 89.7326 91.4511 81.4848 72.0083C69.99 44.912 98.7293 44.5011 98.7293 44.5011C98.7293 44.5011 98.9725 62.9583 116.639 66.8651C117.299 67.0111 117.929 67.1827 118.64 67.2859" fill="#111111"/>
<path d="M158.121 171.683C160.869 205.696 164.622 251.42 165.218 254.999C166.176 260.749 133.116 319.585 133.116 319.585C137.428 337.411 158.567 352.567 158.567 352.567C158.567 352.567 209.778 274.166 211.216 254.042C212.654 233.918 190.366 122.101 152.993 135.037" fill="#111111"/>
<path d="M42.5708 148.152C6.72782 152.096 6.83747 197.357 10.6718 281.685C10.6718 281.685 5.8714 304.78 40.9281 318.308C53.7306 318.308 49.7459 279.435 49.7459 279.435C49.7459 279.435 47.4549 262.185 45.9652 260.748C44.795 259.619 48.1587 220.91 49.6535 204.383" fill="#111111"/>
<mask id="mask5_220_842" style="mask-type:alpha" maskUnits="userSpaceOnUse" x="8" y="148" width="43" height="171">
<path fill-rule="evenodd" clip-rule="evenodd" d="M42.5708 148.152C6.72782 152.096 6.83747 197.357 10.6718 281.685C10.6718 281.685 5.8714 304.78 40.9281 318.308C53.7306 318.308 49.7459 279.435 49.7459 279.435C49.7459 279.435 47.4549 262.185 45.9652 260.748C44.795 259.619 48.1587 220.91 49.6535 204.383" fill="white"/>
</mask>
<g mask="url(#mask5_220_842)">
<path d="M-10.5921 150.018C26.6343 183.799 -16.7205 209.402 -15.923 154.618Z" fill="#111111"/>
<path d="M-11.6929 145.432C23.9004 94.999 38.3858 142.398 -8.66168 151.008Z" fill="#111111"/>
<path d="M-10.2848 147.286C41.2042 135.512 20.7933 187.133 -11.9114 154.481Z" fill="#111111"/>
</g>
</g>
</svg>
