<svg width="132" height="30" viewBox="0 0 132 30" fill="none" xmlns="http://www.w3.org/2000/svg">
<path d="M38.06 15.605C38.02 15.605 38 15.58 38 15.53L38.015 5.225C38.015 5.185 38.04 5.165 38.09 5.165H39.755C39.805 5.165 39.83 5.185 39.83 5.225L39.815 9.305H42.065V5.225C42.065 5.185 42.085 5.165 42.125 5.165H43.79C43.84 5.165 43.865 5.185 43.865 5.225L43.895 15.53C43.895 15.58 43.87 15.605 43.82 15.605H42.14C42.09 15.605 42.065 15.58 42.065 15.53V11.12H39.815V15.53C39.815 15.58 39.795 15.605 39.755 15.605H38.06Z" fill="#262627"/>
<path d="M45.1791 15.605C45.1391 15.605 45.1191 15.58 45.1191 15.53L45.1491 5.225C45.1491 5.185 45.1691 5.165 45.2091 5.165H48.2391C48.7791 5.165 49.2741 5.3 49.7241 5.57C50.1841 5.83 50.5491 6.185 50.8191 6.635C51.0891 7.075 51.2241 7.575 51.2241 8.135C51.2241 8.505 51.1691 8.84 51.0591 9.14C50.9491 9.43 50.8191 9.68 50.6691 9.89C50.5191 10.09 50.3841 10.24 50.2641 10.34C50.8041 10.94 51.0741 11.645 51.0741 12.455L51.0891 15.53C51.0891 15.58 51.0641 15.605 51.0141 15.605H49.3191C49.2791 15.605 49.2591 15.59 49.2591 15.56V12.455C49.2591 12.095 49.1291 11.785 48.8691 11.525C48.6191 11.255 48.3091 11.12 47.9391 11.12H46.9491L46.9341 15.53C46.9341 15.58 46.9141 15.605 46.8741 15.605H45.1791ZM46.9491 9.32H48.2391C48.5491 9.32 48.8241 9.205 49.0641 8.975C49.3041 8.745 49.4241 8.465 49.4241 8.135C49.4241 7.815 49.3041 7.54 49.0641 7.31C48.8341 7.08 48.5591 6.965 48.2391 6.965H46.9491V9.32Z" fill="#262627"/>
<path d="M52.4905 15.605C52.4105 15.605 52.3705 15.57 52.3705 15.5L52.3555 5.285C52.3555 5.205 52.3955 5.165 52.4755 5.165H53.8255L56.3605 11.075L56.2855 5.285C56.2855 5.205 56.3305 5.165 56.4205 5.165H57.9055C57.9655 5.165 57.9955 5.205 57.9955 5.285L58.0105 15.515C58.0105 15.575 57.9855 15.605 57.9355 15.605H56.6155L54.0205 10.085L54.1255 15.485C54.1255 15.565 54.0805 15.605 53.9905 15.605H52.4905Z" fill="#262627"/>
<path d="M59.3735 15.605C59.3335 15.605 59.3135 15.58 59.3135 15.53L59.3285 5.225C59.3285 5.185 59.3485 5.165 59.3885 5.165H64.2035C64.2435 5.165 64.2635 5.19 64.2635 5.24V6.92C64.2635 6.96 64.2435 6.98 64.2035 6.98H61.1285V9.32H64.2035C64.2435 9.32 64.2635 9.34 64.2635 9.38L64.2785 11.075C64.2785 11.115 64.2585 11.135 64.2185 11.135H61.1285V13.76H64.2185C64.2585 13.76 64.2785 13.785 64.2785 13.835V15.545C64.2785 15.585 64.2585 15.605 64.2185 15.605H59.3735Z" fill="#262627"/>
<path d="M67.1123 15.605C67.0723 15.605 67.0523 15.58 67.0523 15.53V6.98H65.1023C65.0523 6.98 65.0273 6.955 65.0273 6.905L65.0423 5.225C65.0423 5.185 65.0623 5.165 65.1023 5.165H70.8023C70.8523 5.165 70.8773 5.185 70.8773 5.225V6.905C70.8773 6.955 70.8573 6.98 70.8173 6.98H68.8523L68.8673 15.53C68.8673 15.58 68.8473 15.605 68.8073 15.605H67.1123Z" fill="#262627"/>
<path d="M71.0776 15.605C71.0376 15.605 71.0176 15.585 71.0176 15.545V13.85C71.0176 13.81 71.0376 13.79 71.0776 13.79H72.7726C72.8126 13.79 72.8326 13.81 72.8326 13.85V15.545C72.8326 15.585 72.8126 15.605 72.7726 15.605H71.0776Z" fill="#262627"/>
<path d="M76.3215 15.755C75.7815 15.755 75.2865 15.62 74.8365 15.35C74.3965 15.07 74.0415 14.705 73.7715 14.255C73.5115 13.795 73.3815 13.29 73.3815 12.74V12.05C73.3815 12 73.4065 11.975 73.4565 11.975H75.1365C75.1765 11.975 75.1965 12 75.1965 12.05V12.74C75.1965 13.07 75.3065 13.355 75.5265 13.595C75.7465 13.825 76.0115 13.94 76.3215 13.94C76.6315 13.94 76.8965 13.82 77.1165 13.58C77.3365 13.34 77.4465 13.06 77.4465 12.74C77.4465 12.37 77.2065 12.05 76.7265 11.78C76.5665 11.69 76.3165 11.55 75.9765 11.36C75.6365 11.17 75.3165 10.99 75.0165 10.82C74.4665 10.5 74.0565 10.1 73.7865 9.62C73.5265 9.13 73.3965 8.58 73.3965 7.97C73.3965 7.41 73.5315 6.91 73.8015 6.47C74.0715 6.02 74.4265 5.665 74.8665 5.405C75.3165 5.145 75.8015 5.015 76.3215 5.015C76.8515 5.015 77.3365 5.15 77.7765 5.42C78.2265 5.68 78.5815 6.035 78.8415 6.485C79.1115 6.925 79.2465 7.42 79.2465 7.97V9.2C79.2465 9.24 79.2265 9.26 79.1865 9.26H77.5065C77.4665 9.26 77.4465 9.24 77.4465 9.2L77.4315 7.97C77.4315 7.62 77.3215 7.335 77.1015 7.115C76.8815 6.895 76.6215 6.785 76.3215 6.785C76.0115 6.785 75.7465 6.905 75.5265 7.145C75.3065 7.375 75.1965 7.65 75.1965 7.97C75.1965 8.3 75.2665 8.575 75.4065 8.795C75.5465 9.015 75.8015 9.225 76.1715 9.425C76.2215 9.455 76.3165 9.51 76.4565 9.59C76.6065 9.66 76.7665 9.745 76.9365 9.845C77.1065 9.935 77.2565 10.015 77.3865 10.085C77.5265 10.155 77.6115 10.2 77.6415 10.22C78.1415 10.5 78.5365 10.845 78.8265 11.255C79.1165 11.655 79.2615 12.15 79.2615 12.74C79.2615 13.31 79.1265 13.825 78.8565 14.285C78.5965 14.735 78.2415 15.095 77.7915 15.365C77.3515 15.625 76.8615 15.755 76.3215 15.755Z" fill="#262627"/>
<path d="M83.0797 15.755C82.5397 15.755 82.0447 15.62 81.5947 15.35C81.1547 15.07 80.7997 14.705 80.5297 14.255C80.2597 13.795 80.1247 13.29 80.1247 12.74L80.1397 7.985C80.1397 7.435 80.2697 6.935 80.5297 6.485C80.7997 6.035 81.1597 5.675 81.6097 5.405C82.0597 5.135 82.5497 5 83.0797 5C83.6197 5 84.1097 5.135 84.5497 5.405C84.9897 5.675 85.3397 6.035 85.5997 6.485C85.8697 6.935 86.0047 7.435 86.0047 7.985L86.0197 12.74C86.0197 13.29 85.8847 13.795 85.6147 14.255C85.3547 14.705 84.9997 15.07 84.5497 15.35C84.1097 15.62 83.6197 15.755 83.0797 15.755ZM83.0797 13.94C83.3797 13.94 83.6397 13.82 83.8597 13.58C84.0897 13.33 84.2047 13.05 84.2047 12.74L84.1897 7.985C84.1897 7.655 84.0847 7.375 83.8747 7.145C83.6647 6.915 83.3997 6.8 83.0797 6.8C82.7697 6.8 82.5047 6.915 82.2847 7.145C82.0647 7.365 81.9547 7.645 81.9547 7.985V12.74C81.9547 13.07 82.0647 13.355 82.2847 13.595C82.5047 13.825 82.7697 13.94 83.0797 13.94Z" fill="#262627"/>
<path d="M39.5523 19.4956L41.398 23.065L43.2486 19.4956H44.318L41.8668 23.9487V26.605H40.9244V23.9487L38.4732 19.4956H39.5523Z" fill="#5F6368"/>
<path d="M44.5328 24.022V23.9097C44.5328 23.5288 44.5882 23.1756 44.6988 22.8501C44.8095 22.5213 44.969 22.2365 45.1773 21.9956C45.3857 21.7515 45.638 21.5627 45.9342 21.4292C46.2304 21.2925 46.5624 21.2241 46.9303 21.2241C47.3014 21.2241 47.635 21.2925 47.9312 21.4292C48.2307 21.5627 48.4846 21.7515 48.693 21.9956C48.9046 22.2365 49.0657 22.5213 49.1764 22.8501C49.287 23.1756 49.3424 23.5288 49.3424 23.9097V24.022C49.3424 24.4029 49.287 24.756 49.1764 25.0816C49.0657 25.4071 48.9046 25.6919 48.693 25.9361C48.4846 26.1769 48.2324 26.3657 47.9361 26.5025C47.6432 26.6359 47.3111 26.7027 46.94 26.7027C46.5689 26.7027 46.2353 26.6359 45.9391 26.5025C45.6428 26.3657 45.3889 26.1769 45.1773 25.9361C44.969 25.6919 44.8095 25.4071 44.6988 25.0816C44.5882 24.756 44.5328 24.4029 44.5328 24.022ZM45.4361 23.9097V24.022C45.4361 24.2857 45.4671 24.5347 45.5289 24.7691C45.5908 25.0002 45.6835 25.2053 45.8072 25.3843C45.9342 25.5633 46.0921 25.7049 46.2809 25.8091C46.4697 25.91 46.6894 25.9605 46.94 25.9605C47.1874 25.9605 47.4039 25.91 47.5895 25.8091C47.7783 25.7049 47.9345 25.5633 48.0582 25.3843C48.1819 25.2053 48.2747 25.0002 48.3365 24.7691C48.4016 24.5347 48.4342 24.2857 48.4342 24.022V23.9097C48.4342 23.6493 48.4016 23.4035 48.3365 23.1724C48.2747 22.938 48.1803 22.7313 48.0533 22.5523C47.9296 22.37 47.7734 22.2267 47.5846 22.1226C47.399 22.0184 47.1809 21.9663 46.9303 21.9663C46.6829 21.9663 46.4648 22.0184 46.276 22.1226C46.0904 22.2267 45.9342 22.37 45.8072 22.5523C45.6835 22.7313 45.5908 22.938 45.5289 23.1724C45.4671 23.4035 45.4361 23.6493 45.4361 23.9097Z" fill="#5F6368"/>
<path d="M53.7076 25.3843V21.3218H54.6158V26.605H53.7516L53.7076 25.3843ZM53.8785 24.271L54.2545 24.2612C54.2545 24.6128 54.2171 24.9383 54.1422 25.2378C54.0706 25.534 53.9534 25.7912 53.7906 26.0093C53.6279 26.2274 53.4146 26.3983 53.151 26.522C52.8873 26.6424 52.5667 26.7027 52.1891 26.7027C51.9319 26.7027 51.6959 26.6652 51.4811 26.5904C51.2695 26.5155 51.0872 26.3999 50.9342 26.2437C50.7812 26.0874 50.6624 25.884 50.5777 25.6333C50.4964 25.3827 50.4557 25.0816 50.4557 24.73V21.3218H51.359V24.7398C51.359 24.9774 51.385 25.1743 51.4371 25.3306C51.4924 25.4836 51.5657 25.6057 51.6568 25.6968C51.7512 25.7847 51.8554 25.8465 51.9693 25.8823C52.0865 25.9182 52.207 25.9361 52.3307 25.9361C52.7148 25.9361 53.0191 25.8628 53.2437 25.7163C53.4684 25.5666 53.6295 25.3664 53.7271 25.1157C53.8281 24.8618 53.8785 24.5803 53.8785 24.271Z" fill="#5F6368"/>
<path d="M56.8961 22.1519V26.605H55.9928V21.3218H56.8717L56.8961 22.1519ZM58.5465 21.2925L58.5416 22.1323C58.4667 22.1161 58.3951 22.1063 58.3268 22.103C58.2617 22.0965 58.1868 22.0933 58.1021 22.0933C57.8938 22.0933 57.7099 22.1258 57.5504 22.1909C57.3909 22.256 57.2558 22.3472 57.1451 22.4644C57.0344 22.5816 56.9465 22.7215 56.8814 22.8843C56.8196 23.0438 56.7789 23.2196 56.7594 23.4116L56.5055 23.5581C56.5055 23.2391 56.5364 22.9396 56.5982 22.6597C56.6633 22.3797 56.7626 22.1323 56.8961 21.9175C57.0296 21.6994 57.1988 21.5301 57.4039 21.4097C57.6122 21.286 57.8596 21.2241 58.1461 21.2241C58.2112 21.2241 58.2861 21.2323 58.3707 21.2486C58.4553 21.2616 58.5139 21.2762 58.5465 21.2925Z" fill="#5F6368"/>
<path d="M64.0738 21.3218V22.0152H61.2174V21.3218H64.0738ZM62.1842 20.0376H63.0875V25.2964C63.0875 25.4754 63.1152 25.6105 63.1705 25.7017C63.2258 25.7928 63.2975 25.853 63.3854 25.8823C63.4732 25.9116 63.5676 25.9263 63.6686 25.9263C63.7434 25.9263 63.8215 25.9198 63.9029 25.9068C63.9876 25.8905 64.051 25.8775 64.0934 25.8677L64.0982 26.605C64.0266 26.6278 63.9322 26.6489 63.815 26.6685C63.7011 26.6913 63.5628 26.7027 63.4 26.7027C63.1786 26.7027 62.9752 26.6587 62.7896 26.5708C62.6041 26.4829 62.456 26.3364 62.3453 26.1314C62.2379 25.923 62.1842 25.6431 62.1842 25.2915V20.0376Z" fill="#5F6368"/>
<path d="M67.3258 26.7027C66.9579 26.7027 66.6243 26.6408 66.3248 26.5171C66.0286 26.3902 65.773 26.2127 65.5582 25.9849C65.3466 25.757 65.1839 25.4868 65.0699 25.1743C64.956 24.8618 64.899 24.52 64.899 24.1489V23.9439C64.899 23.5142 64.9625 23.1317 65.0895 22.7964C65.2164 22.4579 65.3889 22.1714 65.607 21.937C65.8251 21.7027 66.0725 21.5252 66.3492 21.4048C66.6259 21.2844 66.9124 21.2241 67.2086 21.2241C67.5862 21.2241 67.9117 21.2892 68.1852 21.4195C68.4618 21.5497 68.6881 21.732 68.8639 21.9663C69.0396 22.1974 69.1699 22.4709 69.2545 22.7866C69.3391 23.0991 69.3814 23.4409 69.3814 23.812V24.2173H65.4361V23.48H68.4781V23.4116C68.4651 23.1773 68.4163 22.9494 68.3316 22.728C68.2503 22.5067 68.1201 22.3244 67.941 22.1812C67.762 22.0379 67.5178 21.9663 67.2086 21.9663C67.0035 21.9663 66.8147 22.0103 66.6422 22.0982C66.4697 22.1828 66.3215 22.3098 66.1979 22.479C66.0742 22.6483 65.9781 22.855 65.9098 23.0991C65.8414 23.3433 65.8072 23.6249 65.8072 23.9439V24.1489C65.8072 24.3996 65.8414 24.6356 65.9098 24.857C65.9814 25.0751 66.0839 25.2671 66.2174 25.4331C66.3541 25.5991 66.5185 25.7293 66.7105 25.8237C66.9059 25.9182 67.1272 25.9654 67.3746 25.9654C67.6936 25.9654 67.9638 25.9002 68.1852 25.77C68.4065 25.6398 68.6002 25.4657 68.7662 25.2476L69.3131 25.6821C69.1992 25.8547 69.0543 26.0191 68.8785 26.1753C68.7027 26.3316 68.4863 26.4585 68.2291 26.5562C67.9752 26.6538 67.6741 26.7027 67.3258 26.7027Z" fill="#5F6368"/>
<path d="M73.5514 25.7017V22.982C73.5514 22.7736 73.5091 22.593 73.4244 22.44C73.343 22.2837 73.2193 22.1633 73.0533 22.0786C72.8873 21.994 72.6822 21.9517 72.4381 21.9517C72.2102 21.9517 72.01 21.9907 71.8375 22.0689C71.6682 22.147 71.5348 22.2495 71.4371 22.3765C71.3427 22.5034 71.2955 22.6402 71.2955 22.7866H70.3922C70.3922 22.5978 70.441 22.4107 70.5387 22.2251C70.6363 22.0396 70.7763 21.8719 70.9586 21.7222C71.1441 21.5692 71.3655 21.4487 71.6227 21.3609C71.8831 21.2697 72.1728 21.2241 72.4918 21.2241C72.8759 21.2241 73.2145 21.2892 73.5074 21.4195C73.8036 21.5497 74.0348 21.7466 74.2008 22.0103C74.3701 22.2707 74.4547 22.5978 74.4547 22.9917V25.4527C74.4547 25.6284 74.4693 25.8156 74.4986 26.0142C74.5312 26.2127 74.5784 26.3836 74.6402 26.5269V26.605H73.6979C73.6523 26.5008 73.6165 26.3625 73.5904 26.19C73.5644 26.0142 73.5514 25.8514 73.5514 25.7017ZM73.7076 23.4019L73.7174 24.0366H72.8043C72.5471 24.0366 72.3176 24.0578 72.1158 24.1001C71.914 24.1392 71.7447 24.1994 71.608 24.2808C71.4713 24.3622 71.3671 24.4647 71.2955 24.5884C71.2239 24.7088 71.1881 24.8504 71.1881 25.0132C71.1881 25.1792 71.2255 25.3306 71.3004 25.4673C71.3753 25.604 71.4876 25.7131 71.6373 25.7945C71.7903 25.8726 71.9775 25.9116 72.1988 25.9116C72.4755 25.9116 72.7197 25.853 72.9313 25.7359C73.1428 25.6187 73.3105 25.4754 73.4342 25.3062C73.5611 25.1369 73.6295 24.9725 73.6393 24.813L74.025 25.2476C74.0022 25.3843 73.9404 25.5357 73.8395 25.7017C73.7385 25.8677 73.6035 26.0272 73.4342 26.1802C73.2682 26.3299 73.0696 26.4553 72.8385 26.5562C72.6106 26.6538 72.3535 26.7027 72.067 26.7027C71.7089 26.7027 71.3948 26.6327 71.1246 26.4927C70.8577 26.3527 70.6494 26.1655 70.4996 25.9312C70.3531 25.6935 70.2799 25.4282 70.2799 25.1353C70.2799 24.8521 70.3352 24.603 70.4459 24.3882C70.5566 24.1701 70.7161 23.9894 70.9244 23.8462C71.1327 23.6997 71.3834 23.589 71.6764 23.5142C71.9693 23.4393 72.2965 23.4019 72.6578 23.4019H73.7076Z" fill="#5F6368"/>
<path d="M76.774 22.3716V26.605H75.8658V21.3218H76.7252L76.774 22.3716ZM76.5885 23.7632L76.1686 23.7486C76.1718 23.3872 76.219 23.0536 76.3102 22.7476C76.4013 22.4383 76.5364 22.1698 76.7154 21.9419C76.8945 21.714 77.1174 21.5383 77.3844 21.4146C77.6513 21.2876 77.9605 21.2241 78.3121 21.2241C78.5595 21.2241 78.7874 21.2599 78.9957 21.3316C79.204 21.3999 79.3847 21.509 79.5377 21.6587C79.6907 21.8085 79.8095 22.0005 79.8941 22.2349C79.9788 22.4693 80.0211 22.7525 80.0211 23.0845V26.605H79.1178V23.1284C79.1178 22.8517 79.0706 22.6304 78.9762 22.4644C78.885 22.2984 78.7548 22.1779 78.5855 22.103C78.4163 22.0249 78.2177 21.9859 77.9898 21.9859C77.7229 21.9859 77.4999 22.0331 77.3209 22.1275C77.1419 22.2219 76.9986 22.3521 76.8912 22.5181C76.7838 22.6841 76.7057 22.8745 76.6568 23.0894C76.6113 23.301 76.5885 23.5256 76.5885 23.7632ZM80.0113 23.2652L79.4059 23.4507C79.4091 23.161 79.4563 22.8827 79.5475 22.6157C79.6419 22.3488 79.777 22.1112 79.9527 21.9029C80.1318 21.6945 80.3515 21.5301 80.6119 21.4097C80.8723 21.286 81.1702 21.2241 81.5055 21.2241C81.7887 21.2241 82.0393 21.2616 82.2574 21.3364C82.4788 21.4113 82.6643 21.5269 82.8141 21.6831C82.9671 21.8361 83.0826 22.0331 83.1607 22.2739C83.2389 22.5148 83.2779 22.8013 83.2779 23.1333V26.605H82.3697V23.1236C82.3697 22.8273 82.3225 22.5978 82.2281 22.4351C82.137 22.2691 82.0068 22.1535 81.8375 22.0884C81.6715 22.02 81.4729 21.9859 81.2418 21.9859C81.0432 21.9859 80.8674 22.02 80.7145 22.0884C80.5615 22.1568 80.4329 22.2512 80.3287 22.3716C80.2245 22.4888 80.1448 22.6239 80.0895 22.7769C80.0374 22.9299 80.0113 23.0926 80.0113 23.2652Z" fill="#5F6368"/>
<path d="M85.4654 25.5308V26.2583C85.4654 26.5545 85.3906 26.867 85.2408 27.1958C85.0911 27.5279 84.8811 27.8045 84.6109 28.0259L84.0982 27.6695C84.2024 27.5262 84.2903 27.3797 84.3619 27.23C84.4335 27.0835 84.4872 26.9305 84.523 26.771C84.5621 26.6148 84.5816 26.4487 84.5816 26.273V25.5308H85.4654Z" fill="#5F6368"/>
<path d="M90.5826 26.0581L92.0523 21.3218H93.0191L90.9 27.4204C90.8512 27.5506 90.7861 27.6906 90.7047 27.8404C90.6266 27.9933 90.5257 28.1382 90.402 28.2749C90.2783 28.4116 90.1285 28.5223 89.9527 28.607C89.7802 28.6948 89.5735 28.7388 89.3326 28.7388C89.261 28.7388 89.1699 28.729 89.0592 28.7095C88.9485 28.69 88.8704 28.6737 88.8248 28.6607L88.8199 27.9282C88.846 27.9315 88.8867 27.9348 88.942 27.938C89.0006 27.9445 89.0413 27.9478 89.0641 27.9478C89.2691 27.9478 89.4433 27.9201 89.5865 27.8648C89.7298 27.8127 89.8502 27.7232 89.9479 27.5962C90.0488 27.4725 90.135 27.3016 90.2066 27.0835L90.5826 26.0581ZM89.5035 21.3218L90.8756 25.4234L91.11 26.3755L90.4605 26.7075L88.5172 21.3218H89.5035Z" fill="#5F6368"/>
<path d="M93.5172 24.022V23.9097C93.5172 23.5288 93.5725 23.1756 93.6832 22.8501C93.7939 22.5213 93.9534 22.2365 94.1617 21.9956C94.3701 21.7515 94.6223 21.5627 94.9186 21.4292C95.2148 21.2925 95.5468 21.2241 95.9146 21.2241C96.2857 21.2241 96.6194 21.2925 96.9156 21.4292C97.2151 21.5627 97.469 21.7515 97.6773 21.9956C97.8889 22.2365 98.0501 22.5213 98.1607 22.8501C98.2714 23.1756 98.3268 23.5288 98.3268 23.9097V24.022C98.3268 24.4029 98.2714 24.756 98.1607 25.0816C98.0501 25.4071 97.8889 25.6919 97.6773 25.9361C97.469 26.1769 97.2167 26.3657 96.9205 26.5025C96.6275 26.6359 96.2955 26.7027 95.9244 26.7027C95.5533 26.7027 95.2197 26.6359 94.9234 26.5025C94.6272 26.3657 94.3733 26.1769 94.1617 25.9361C93.9534 25.6919 93.7939 25.4071 93.6832 25.0816C93.5725 24.756 93.5172 24.4029 93.5172 24.022ZM94.4205 23.9097V24.022C94.4205 24.2857 94.4514 24.5347 94.5133 24.7691C94.5751 25.0002 94.6679 25.2053 94.7916 25.3843C94.9186 25.5633 95.0764 25.7049 95.2652 25.8091C95.454 25.91 95.6738 25.9605 95.9244 25.9605C96.1718 25.9605 96.3883 25.91 96.5738 25.8091C96.7626 25.7049 96.9189 25.5633 97.0426 25.3843C97.1663 25.2053 97.2591 25.0002 97.3209 24.7691C97.386 24.5347 97.4186 24.2857 97.4186 24.022V23.9097C97.4186 23.6493 97.386 23.4035 97.3209 23.1724C97.2591 22.938 97.1646 22.7313 97.0377 22.5523C96.914 22.37 96.7577 22.2267 96.5689 22.1226C96.3834 22.0184 96.1653 21.9663 95.9146 21.9663C95.6673 21.9663 95.4492 22.0184 95.2604 22.1226C95.0748 22.2267 94.9186 22.37 94.7916 22.5523C94.6679 22.7313 94.5751 22.938 94.5133 23.1724C94.4514 23.4035 94.4205 23.6493 94.4205 23.9097Z" fill="#5F6368"/>
<path d="M102.692 25.3843V21.3218H103.6V26.605H102.736L102.692 25.3843ZM102.863 24.271L103.239 24.2612C103.239 24.6128 103.201 24.9383 103.127 25.2378C103.055 25.534 102.938 25.7912 102.775 26.0093C102.612 26.2274 102.399 26.3983 102.135 26.522C101.872 26.6424 101.551 26.7027 101.173 26.7027C100.916 26.7027 100.68 26.6652 100.465 26.5904C100.254 26.5155 100.072 26.3999 99.9186 26.2437C99.7656 26.0874 99.6467 25.884 99.5621 25.6333C99.4807 25.3827 99.44 25.0816 99.44 24.73V21.3218H100.343V24.7398C100.343 24.9774 100.369 25.1743 100.421 25.3306C100.477 25.4836 100.55 25.6057 100.641 25.6968C100.736 25.7847 100.84 25.8465 100.954 25.8823C101.071 25.9182 101.191 25.9361 101.315 25.9361C101.699 25.9361 102.004 25.8628 102.228 25.7163C102.453 25.5666 102.614 25.3664 102.712 25.1157C102.812 24.8618 102.863 24.5803 102.863 24.271Z" fill="#5F6368"/>
<path d="M105.88 22.1519V26.605H104.977V21.3218H105.856L105.88 22.1519ZM107.531 21.2925L107.526 22.1323C107.451 22.1161 107.379 22.1063 107.311 22.103C107.246 22.0965 107.171 22.0933 107.087 22.0933C106.878 22.0933 106.694 22.1258 106.535 22.1909C106.375 22.256 106.24 22.3472 106.129 22.4644C106.019 22.5816 105.931 22.7215 105.866 22.8843C105.804 23.0438 105.763 23.2196 105.744 23.4116L105.49 23.5581C105.49 23.2391 105.521 22.9396 105.583 22.6597C105.648 22.3797 105.747 22.1323 105.88 21.9175C106.014 21.6994 106.183 21.5301 106.388 21.4097C106.597 21.286 106.844 21.2241 107.13 21.2241C107.196 21.2241 107.27 21.2323 107.355 21.2486C107.44 21.2616 107.498 21.2762 107.531 21.2925Z" fill="#5F6368"/>
<path d="M113.058 21.3218V22.0152H110.202V21.3218H113.058ZM111.169 20.0376H112.072V25.2964C112.072 25.4754 112.1 25.6105 112.155 25.7017C112.21 25.7928 112.282 25.853 112.37 25.8823C112.458 25.9116 112.552 25.9263 112.653 25.9263C112.728 25.9263 112.806 25.9198 112.887 25.9068C112.972 25.8905 113.035 25.8775 113.078 25.8677L113.083 26.605C113.011 26.6278 112.917 26.6489 112.799 26.6685C112.685 26.6913 112.547 26.7027 112.384 26.7027C112.163 26.7027 111.96 26.6587 111.774 26.5708C111.588 26.4829 111.44 26.3364 111.33 26.1314C111.222 25.923 111.169 25.6431 111.169 25.2915V20.0376Z" fill="#5F6368"/>
<path d="M113.781 24.022V23.9097C113.781 23.5288 113.836 23.1756 113.947 22.8501C114.058 22.5213 114.217 22.2365 114.425 21.9956C114.634 21.7515 114.886 21.5627 115.182 21.4292C115.478 21.2925 115.81 21.2241 116.178 21.2241C116.549 21.2241 116.883 21.2925 117.179 21.4292C117.479 21.5627 117.733 21.7515 117.941 21.9956C118.153 22.2365 118.314 22.5213 118.424 22.8501C118.535 23.1756 118.59 23.5288 118.59 23.9097V24.022C118.59 24.4029 118.535 24.756 118.424 25.0816C118.314 25.4071 118.153 25.6919 117.941 25.9361C117.733 26.1769 117.48 26.3657 117.184 26.5025C116.891 26.6359 116.559 26.7027 116.188 26.7027C115.817 26.7027 115.483 26.6359 115.187 26.5025C114.891 26.3657 114.637 26.1769 114.425 25.9361C114.217 25.6919 114.058 25.4071 113.947 25.0816C113.836 24.756 113.781 24.4029 113.781 24.022ZM114.684 23.9097V24.022C114.684 24.2857 114.715 24.5347 114.777 24.7691C114.839 25.0002 114.932 25.2053 115.055 25.3843C115.182 25.5633 115.34 25.7049 115.529 25.8091C115.718 25.91 115.937 25.9605 116.188 25.9605C116.435 25.9605 116.652 25.91 116.838 25.8091C117.026 25.7049 117.183 25.5633 117.306 25.3843C117.43 25.2053 117.523 25.0002 117.585 24.7691C117.65 24.5347 117.682 24.2857 117.682 24.022V23.9097C117.682 23.6493 117.65 23.4035 117.585 23.1724C117.523 22.938 117.428 22.7313 117.301 22.5523C117.178 22.37 117.021 22.2267 116.833 22.1226C116.647 22.0184 116.429 21.9663 116.178 21.9663C115.931 21.9663 115.713 22.0184 115.524 22.1226C115.338 22.2267 115.182 22.37 115.055 22.5523C114.932 22.7313 114.839 22.938 114.777 23.1724C114.715 23.4035 114.684 23.6493 114.684 23.9097Z" fill="#5F6368"/>
<path d="M119.484 24.022V23.9097C119.484 23.5288 119.539 23.1756 119.65 22.8501C119.761 22.5213 119.92 22.2365 120.129 21.9956C120.337 21.7515 120.589 21.5627 120.885 21.4292C121.182 21.2925 121.514 21.2241 121.881 21.2241C122.253 21.2241 122.586 21.2925 122.882 21.4292C123.182 21.5627 123.436 21.7515 123.644 21.9956C123.856 22.2365 124.017 22.5213 124.128 22.8501C124.238 23.1756 124.294 23.5288 124.294 23.9097V24.022C124.294 24.4029 124.238 24.756 124.128 25.0816C124.017 25.4071 123.856 25.6919 123.644 25.9361C123.436 26.1769 123.184 26.3657 122.887 26.5025C122.594 26.6359 122.262 26.7027 121.891 26.7027C121.52 26.7027 121.186 26.6359 120.89 26.5025C120.594 26.3657 120.34 26.1769 120.129 25.9361C119.92 25.6919 119.761 25.4071 119.65 25.0816C119.539 24.756 119.484 24.4029 119.484 24.022ZM120.387 23.9097V24.022C120.387 24.2857 120.418 24.5347 120.48 24.7691C120.542 25.0002 120.635 25.2053 120.758 25.3843C120.885 25.5633 121.043 25.7049 121.232 25.8091C121.421 25.91 121.641 25.9605 121.891 25.9605C122.139 25.9605 122.355 25.91 122.541 25.8091C122.729 25.7049 122.886 25.5633 123.009 25.3843C123.133 25.2053 123.226 25.0002 123.288 24.7691C123.353 24.5347 123.385 24.2857 123.385 24.022V23.9097C123.385 23.6493 123.353 23.4035 123.288 23.1724C123.226 22.938 123.131 22.7313 123.004 22.5523C122.881 22.37 122.725 22.2267 122.536 22.1226C122.35 22.0184 122.132 21.9663 121.881 21.9663C121.634 21.9663 121.416 22.0184 121.227 22.1226C121.042 22.2267 120.885 22.37 120.758 22.5523C120.635 22.7313 120.542 22.938 120.48 23.1724C120.418 23.4035 120.387 23.6493 120.387 23.9097Z" fill="#5F6368"/>
<path d="M126.408 19.105V26.605H125.5V19.105H126.408Z" fill="#5F6368"/>
<path d="M130.934 25.2036C130.934 25.0734 130.905 24.953 130.846 24.8423C130.791 24.7284 130.675 24.6258 130.5 24.5347C130.327 24.4403 130.067 24.3589 129.718 24.2905C129.425 24.2287 129.16 24.1555 128.922 24.0708C128.688 23.9862 128.488 23.8836 128.322 23.7632C128.159 23.6428 128.034 23.5012 127.946 23.3384C127.858 23.1756 127.814 22.9852 127.814 22.7671C127.814 22.5588 127.86 22.3618 127.951 22.1763C128.045 21.9907 128.177 21.8264 128.346 21.6831C128.519 21.5399 128.726 21.4276 128.966 21.3462C129.207 21.2648 129.476 21.2241 129.772 21.2241C130.195 21.2241 130.557 21.299 130.856 21.4487C131.156 21.5985 131.385 21.7987 131.545 22.0493C131.704 22.2967 131.784 22.5718 131.784 22.8745H130.88C130.88 22.728 130.837 22.5864 130.749 22.4497C130.664 22.3098 130.539 22.1942 130.373 22.103C130.21 22.0119 130.01 21.9663 129.772 21.9663C129.521 21.9663 129.318 22.0054 129.162 22.0835C129.009 22.1584 128.896 22.2544 128.825 22.3716C128.756 22.4888 128.722 22.6125 128.722 22.7427C128.722 22.8404 128.739 22.9282 128.771 23.0064C128.807 23.0812 128.869 23.1512 128.957 23.2163C129.045 23.2782 129.168 23.3368 129.328 23.3921C129.487 23.4474 129.691 23.5028 129.938 23.5581C130.371 23.6558 130.727 23.773 131.007 23.9097C131.287 24.0464 131.496 24.214 131.632 24.4126C131.769 24.6112 131.838 24.8521 131.838 25.1353C131.838 25.3664 131.789 25.578 131.691 25.77C131.597 25.9621 131.458 26.1281 131.276 26.2681C131.097 26.4048 130.882 26.5122 130.631 26.5904C130.384 26.6652 130.106 26.7027 129.796 26.7027C129.331 26.7027 128.937 26.6196 128.615 26.4536C128.293 26.2876 128.048 26.0728 127.882 25.8091C127.716 25.5454 127.633 25.2671 127.633 24.9741H128.542C128.555 25.2215 128.626 25.4185 128.756 25.565C128.887 25.7082 129.046 25.8107 129.235 25.8726C129.424 25.9312 129.611 25.9605 129.796 25.9605C130.044 25.9605 130.251 25.9279 130.417 25.8628C130.586 25.7977 130.714 25.7082 130.802 25.5943C130.89 25.4803 130.934 25.3501 130.934 25.2036Z" fill="#5F6368"/>
<path fill-rule="evenodd" clip-rule="evenodd" d="M14.1767 28.393C13.0611 28.762 11.83 28.5873 10.8709 27.9241C9.91171 27.2609 9.34253 26.1905 9.34253 25.0502C9.34253 19.4903 9.34253 10.5104 9.34253 4.94969C9.34253 3.80942 9.91171 2.73905 10.8709 2.07586C11.83 1.41267 13.0611 1.23874 14.1767 1.60772C18.8864 3.16573 25.8576 5.47228 29.5298 6.68732C31.0073 7.17577 32 8.51922 32 10.0293V19.9715C32 21.4815 31.0073 22.825 29.5298 23.3134C25.8576 24.5285 18.8864 26.8342 14.1767 28.393Z" stroke="black" stroke-width="0.0272054" stroke-miterlimit="1.5" stroke-linecap="round" stroke-linejoin="round"/>
<path fill-rule="evenodd" clip-rule="evenodd" d="M5.53801 28.8943C4.44696 29.1585 3.29109 28.9212 2.40462 28.2523C1.51827 27.5826 1.00006 26.5553 1.00006 25.4678C1.00006 19.812 1.00006 10.1884 1.00006 4.5326C1.00006 3.44435 1.51827 2.41787 2.40462 1.74817C3.29109 1.07848 4.44696 0.841971 5.53801 1.1053C12.0583 2.682 23.8802 5.54039 29.2335 6.83508C30.8594 7.22844 32 8.64098 32 10.2624C32 12.9582 32 17.0414 32 19.7381C32 21.3587 30.8594 22.772 29.2335 23.1646C23.8802 24.4592 12.0583 27.3176 5.53801 28.8943Z" stroke="black" stroke-width="0.0267149" stroke-miterlimit="1.5" stroke-linecap="round" stroke-linejoin="round"/>
<path fill-rule="evenodd" clip-rule="evenodd" d="M14.1767 28.393C13.0611 28.762 11.83 28.5873 10.8709 27.9241C9.91171 27.2609 9.34253 26.1905 9.34253 25.0502C9.34253 19.4903 9.34253 10.5104 9.34253 4.94969C9.34253 3.80942 9.91171 2.73905 10.8709 2.07586C11.83 1.41267 13.0611 1.23874 14.1767 1.60772C18.8864 3.16573 25.8576 5.47228 29.5298 6.68732C31.0073 7.17577 32 8.51922 32 10.0293V19.9715C32 21.4815 31.0073 22.825 29.5298 23.3134C25.8576 24.5285 18.8864 26.8342 14.1767 28.393Z" fill="white" stroke="white" stroke-width="0.0135898" stroke-miterlimit="1.5" stroke-linecap="round" stroke-linejoin="round"/>
<path fill-rule="evenodd" clip-rule="evenodd" d="M5.53801 28.8943C4.44696 29.1585 3.29109 28.9212 2.40462 28.2523C1.51827 27.5826 1.00006 26.5553 1.00006 25.4678C1.00006 19.812 1.00006 10.1884 1.00006 4.5326C1.00006 3.44435 1.51827 2.41787 2.40462 1.74817C3.29109 1.07848 4.44696 0.841971 5.53801 1.1053C12.0583 2.682 23.8802 5.54039 29.2335 6.83508C30.8594 7.22844 32 8.64098 32 10.2624C32 12.9582 32 17.0414 32 19.7381C32 21.3587 30.8594 22.772 29.2335 23.1646C23.8802 24.4592 12.0583 27.3176 5.53801 28.8943Z" fill="white" stroke="white" stroke-width="0.0133574" stroke-miterlimit="1.5" stroke-linecap="round" stroke-linejoin="round"/>
<path fill-rule="evenodd" clip-rule="evenodd" d="M14.8901 26.8996C13.7746 27.2685 12.5434 27.0943 11.5843 26.4313C10.6251 25.7683 10.0559 24.6976 10.0559 23.5575C10.0559 18.6932 10.0559 11.307 10.0559 6.44272C10.0559 5.30183 10.6251 4.23193 11.5843 3.56891C12.5434 2.90589 13.7746 2.73099 14.8901 3.10055C19.0058 4.46171 24.7512 6.36295 27.9871 7.43285C29.4645 7.9217 30.4573 9.26529 30.4573 10.7757C30.4573 13.19 30.4573 16.8102 30.4573 19.2244C30.4573 20.7349 29.4645 22.0778 27.9871 22.5666C24.7512 23.6372 19.0058 25.5377 14.8901 26.8996Z" fill="black" fill-opacity="0.53" stroke="black" stroke-width="0.0136091" stroke-miterlimit="1.5" stroke-linecap="round" stroke-linejoin="round"/>
<path fill-rule="evenodd" clip-rule="evenodd" d="M7.08213 27.4017C5.99109 27.6652 4.83522 27.4288 3.9488 26.7592C3.06237 26.0896 2.54418 25.0629 2.54418 23.9747V6.02495C2.54418 4.93748 3.06237 3.91003 3.9488 3.24116C4.83522 2.57156 5.99109 2.33445 7.08213 2.59863C12.9193 4.00956 22.8776 6.41793 27.6909 7.5815C29.3166 7.97448 30.4573 9.3876 30.4573 11.0086V18.9918C30.4573 20.6128 29.3166 22.0252 27.6909 22.4181C22.8776 23.5824 12.9193 25.9901 7.08213 27.4017Z" fill="black" fill-opacity="0.53" stroke="black" stroke-width="0.0133607" stroke-miterlimit="1.5" stroke-linecap="round" stroke-linejoin="round"/>
</svg>
